<svg xmlns="http://www.w3.org/2000/svg" height="180" width="180" xml:space="preserve"><g transform="translate(-4.596 -4.596) scale(2.14991)"><linearGradient y2="4.44" x2="44" y1="53.283" x1="44" gradientUnits="userSpaceOnUse" id="a"><stop style="stop-color:#0555ff" offset="0"/><stop style="stop-color:#0eaddc" offset=".601"/><stop style="stop-color:#14e084" offset="1"/></linearGradient><path style="fill:url(#a)" d="M59.6 4c-1.7 0-3 1.3-3 3 0 .5.1 1 .4 1.4L45.4 20 44 18.6 42.6 20 31 8.4c.2-.4.4-.9.4-1.4 0-1.7-1.3-3-3-3s-3 1.3-3 3 1.3 3 3 3c.5 0 1-.1 1.4-.4l11.6 11.6-1.4 1.4 4.1 4.1 4.1-4.1-1.4-1.4L58.2 9.6c.4.2.9.4 1.4.4 1.7 0 3-1.3 3-3s-1.3-3-3-3zM28.4 8.3c-.7 0-1.3-.6-1.3-1.3 0-.7.6-1.3 1.3-1.3.7 0 1.3.6 1.3 1.3-.1.7-.6 1.2-1.3 1.3zm17.2 14.3L44 24.3l-1.6-1.6.2-.2 1.2-1.2.2-.3.2.2 1.2 1.2zm14-14.3c-.7 0-1.2-.6-1.3-1.2 0-.7.6-1.3 1.3-1.3.7 0 1.3.6 1.3 1.3 0 .7-.6 1.2-1.3 1.2z"/><linearGradient gradientTransform="rotate(45.001 3073.757 865.891)" y2="2408.178" x2="324.473" y1="2453.659" x1="324.473" gradientUnits="userSpaceOnUse" id="b"><stop style="stop-color:#3b64ff" offset="0"/><stop style="stop-color:#0590ff" offset=".029"/><stop style="stop-color:#14d384" offset="1"/></linearGradient><path style="fill:url(#b)" d="M31.8 19.7c0 .1.1.1.1.1z"/><linearGradient gradientTransform="rotate(45.001 3073.757 865.891)" y2="2405.287" x2="341.623" y1="2453.659" x1="341.623" gradientUnits="userSpaceOnUse" id="c"><stop style="stop-color:#3b64ff" offset="0"/><stop style="stop-color:#0590ff" offset=".029"/><stop style="stop-color:#14d384" offset="1"/></linearGradient><path style="fill:url(#c)" d="m56.2 19.7-.1.1s0-.1.1-.1z"/><linearGradient y2="11.195" x2="44" y1="59.808" x1="44" gradientUnits="userSpaceOnUse" id="d"><stop style="stop-color:#ff1d25" offset="0"/><stop style="stop-color:#ffb400" offset="1"/></linearGradient><path style="fill:url(#d)" d="m56.2 19.7-.1.1-4 4c-.7.7-1.3 1.4-1.9 2.2-2.2 2.4-6.2 6.8-6.2 6.8s-4-4.4-6.1-6.8c-.6-.7-1.3-1.5-1.9-2.2l-4-4-.1-.1C15.7 4.8-.1 3.9 2.4 24.3c.9 6.9 3 13.4 7.4 18.6C17.4 53.7 30 60.6 44 60.6c14 0 26.6-6.9 34.2-17.6 4.4-5.3 6.5-11.8 7.4-18.6 2.5-20.5-13.3-19.6-29.4-4.7z"/><path d="M66.8 53.9c-5.4-4.7-12.1-7.7-19.4-8.4-9.7-.9-19.1 2.3-26.1 8.4 6.6 4.3 14.4 6.7 22.8 6.7 8.3 0 16.1-2.4 22.7-6.7z" style="fill:#d2071a"/><g><linearGradient y2="80.977" x2="18.087" y1="48.999" x1="18.087" gradientUnits="userSpaceOnUse" id="e"><stop style="stop-color:#0555ff" offset=".153"/><stop style="stop-color:#0eaddc" offset=".651"/><stop style="stop-color:#00e05c" offset="1"/></linearGradient><path style="fill:url(#e)" d="M16.5 59.2h3.2V56h-.4c-1 1-2 2-2.8 3.2z"/><linearGradient y2="80.977" x2="21.787" y1="48.999" x1="21.787" gradientUnits="userSpaceOnUse" id="f"><stop style="stop-color:#0555ff" offset=".153"/><stop style="stop-color:#0eaddc" offset=".651"/><stop style="stop-color:#00e05c" offset="1"/></linearGradient><path style="fill:url(#f)" d="M20.2 56v3.2h3.2v-2.7c-.3-.2-.6-.3-.9-.5z"/><linearGradient y2="80.977" x2="25.489" y1="48.999" x1="25.489" gradientUnits="userSpaceOnUse" id="g"><stop style="stop-color:#0555ff" offset=".153"/><stop style="stop-color:#0eaddc" offset=".651"/><stop style="stop-color:#00e05c" offset="1"/></linearGradient><path style="fill:url(#g)" d="M23.9 59.2h3.2v-.8c-1.1-.5-2.1-1-3.2-1.6z"/><linearGradient y2="80.977" x2="28.238" y1="48.999" x1="28.238" gradientUnits="userSpaceOnUse" id="h"><stop style="stop-color:#0555ff" offset=".153"/><stop style="stop-color:#0eaddc" offset=".651"/><stop style="stop-color:#00e05c" offset="1"/></linearGradient><path style="fill:url(#h)" d="M27.6 59.2h1.3c-.4-.2-.8-.4-1.3-.5z"/><linearGradient y2="80.977" x2="59.761" y1="48.999" x1="59.761" gradientUnits="userSpaceOnUse" id="i"><stop style="stop-color:#0555ff" offset=".153"/><stop style="stop-color:#0eaddc" offset=".651"/><stop style="stop-color:#00e05c" offset="1"/></linearGradient><path style="fill:url(#i)" d="M60.4 59.2v-.5c-.4.2-.8.4-1.3.5z"/><linearGradient y2="80.977" x2="62.509" y1="48.999" x1="62.509" gradientUnits="userSpaceOnUse" id="j"><stop style="stop-color:#0555ff" offset=".153"/><stop style="stop-color:#0eaddc" offset=".651"/><stop style="stop-color:#00e05c" offset="1"/></linearGradient><path style="fill:url(#j)" d="M60.9 59.2h3.2v-2.4c-1 .6-2.1 1.1-3.2 1.6z"/><linearGradient y2="80.977" x2="66.211" y1="48.999" x1="66.211" gradientUnits="userSpaceOnUse" id="k"><stop style="stop-color:#0555ff" offset=".153"/><stop style="stop-color:#0eaddc" offset=".651"/><stop style="stop-color:#00e05c" offset="1"/></linearGradient><path style="fill:url(#k)" d="M64.6 59.2h3.2V56h-2.3c-.3.2-.6.3-.9.5z"/><linearGradient y2="80.977" x2="69.912" y1="48.999" x1="69.912" gradientUnits="userSpaceOnUse" id="l"><stop style="stop-color:#0555ff" offset=".153"/><stop style="stop-color:#0eaddc" offset=".651"/><stop style="stop-color:#00e05c" offset="1"/></linearGradient><path style="fill:url(#l)" d="M68.3 56v3.2h3.2c-.8-1.2-1.7-2.2-2.7-3.2z"/><linearGradient y2="80.451" x2="14.985" y1="50.072" x1="14.985" gradientUnits="userSpaceOnUse" id="m"><stop style="stop-color:#0555ff" offset=".153"/><stop style="stop-color:#0eaddc" offset=".651"/><stop style="stop-color:#00e05c" offset="1"/></linearGradient><path style="fill:url(#m)" d="M14.1 62.8h1.8v-2.7c-.5.7-1 1.4-1.4 2.1-.2.2-.3.4-.4.6z"/><linearGradient y2="80.443" x2="18.085" y1="50.065" x1="18.085" gradientUnits="userSpaceOnUse" id="n"><stop style="stop-color:#0555ff" offset=".153"/><stop style="stop-color:#0eaddc" offset=".651"/><stop style="stop-color:#00e05c" offset="1"/></linearGradient><path style="fill:url(#n)" d="M16.7 60h2.8v2.8h-2.8z"/><linearGradient y2="80.443" x2="21.787" y1="50.065" x1="21.787" gradientUnits="userSpaceOnUse" id="o"><stop style="stop-color:#0555ff" offset=".153"/><stop style="stop-color:#0eaddc" offset=".651"/><stop style="stop-color:#00e05c" offset="1"/></linearGradient><path style="fill:url(#o)" d="M20.4 60h2.8v2.8h-2.8z"/><linearGradient y2="80.443" x2="25.489" y1="50.065" x1="25.489" gradientUnits="userSpaceOnUse" id="p"><stop style="stop-color:#0555ff" offset=".153"/><stop style="stop-color:#0eaddc" offset=".651"/><stop style="stop-color:#00e05c" offset="1"/></linearGradient><path style="fill:url(#p)" d="M24.1 60h2.8v2.8h-2.8z"/><linearGradient y2="80.443" x2="29.191" y1="50.065" x1="29.191" gradientUnits="userSpaceOnUse" id="q"><stop style="stop-color:#0555ff" offset=".153"/><stop style="stop-color:#0eaddc" offset=".651"/><stop style="stop-color:#00e05c" offset="1"/></linearGradient><path style="fill:url(#q)" d="M27.8 60h2.8v2.8h-2.8z"/><linearGradient y2="80.443" x2="32.893" y1="50.065" x1="32.893" gradientUnits="userSpaceOnUse" id="r"><stop style="stop-color:#0555ff" offset=".153"/><stop style="stop-color:#0eaddc" offset=".651"/><stop style="stop-color:#00e05c" offset="1"/></linearGradient><path style="fill:url(#r)" d="M31.5 62.8h2.8v-1.9c-.9-.2-1.9-.5-2.8-.8z"/><linearGradient y2="80.443" x2="36.595" y1="50.065" x1="36.595" gradientUnits="userSpaceOnUse" id="s"><stop style="stop-color:#0555ff" offset=".153"/><stop style="stop-color:#0eaddc" offset=".651"/><stop style="stop-color:#00e05c" offset="1"/></linearGradient><path style="fill:url(#s)" d="M35.2 62.8H38v-1.2c-.9-.1-1.9-.3-2.8-.5z"/><linearGradient y2="80.443" x2="40.297" y1="50.065" x1="40.297" gradientUnits="userSpaceOnUse" id="t"><stop style="stop-color:#0555ff" offset=".153"/><stop style="stop-color:#0eaddc" offset=".651"/><stop style="stop-color:#00e05c" offset="1"/></linearGradient><path style="fill:url(#t)" d="M38.9 62.8h2.8V62c-.9-.1-1.9-.1-2.8-.2z"/><linearGradient y2="80.443" x2="43.999" y1="50.065" x1="43.999" gradientUnits="userSpaceOnUse" id="u"><stop style="stop-color:#0555ff" offset=".153"/><stop style="stop-color:#0eaddc" offset=".651"/><stop style="stop-color:#00e05c" offset="1"/></linearGradient><path style="fill:url(#u)" d="M42.6 62v.8h2.8V62h-2.8z"/><linearGradient y2="80.443" x2="47.701" y1="50.065" x1="47.701" gradientUnits="userSpaceOnUse" id="v"><stop style="stop-color:#0555ff" offset=".153"/><stop style="stop-color:#0eaddc" offset=".651"/><stop style="stop-color:#00e05c" offset="1"/></linearGradient><path style="fill:url(#v)" d="M46.3 62.8h2.8v-1.1c-.9.1-1.9.2-2.8.2z"/><linearGradient y2="80.443" x2="51.403" y1="50.065" x1="51.403" gradientUnits="userSpaceOnUse" id="w"><stop style="stop-color:#0555ff" offset=".153"/><stop style="stop-color:#0eaddc" offset=".651"/><stop style="stop-color:#00e05c" offset="1"/></linearGradient><path style="fill:url(#w)" d="M50 62.8h2.8v-1.7c-.9.2-1.9.4-2.8.5z"/><linearGradient y2="80.443" x2="55.105" y1="50.065" x1="55.105" gradientUnits="userSpaceOnUse" id="x"><stop style="stop-color:#0555ff" offset=".153"/><stop style="stop-color:#0eaddc" offset=".651"/><stop style="stop-color:#00e05c" offset="1"/></linearGradient><path style="fill:url(#x)" d="M53.7 62.8h2.8v-2.7c-.9.3-1.9.5-2.8.8z"/><linearGradient y2="80.443" x2="58.807" y1="50.065" x1="58.807" gradientUnits="userSpaceOnUse" id="y"><stop style="stop-color:#0555ff" offset=".153"/><stop style="stop-color:#0eaddc" offset=".651"/><stop style="stop-color:#00e05c" offset="1"/></linearGradient><path style="fill:url(#y)" d="M57.4 60h2.8v2.8h-2.8z"/><linearGradient y2="80.443" x2="62.509" y1="50.065" x1="62.509" gradientUnits="userSpaceOnUse" id="z"><stop style="stop-color:#0555ff" offset=".153"/><stop style="stop-color:#0eaddc" offset=".651"/><stop style="stop-color:#00e05c" offset="1"/></linearGradient><path style="fill:url(#z)" d="M61.1 60h2.8v2.8h-2.8z"/><linearGradient y2="80.443" x2="66.211" y1="50.065" x1="66.211" gradientUnits="userSpaceOnUse" id="A"><stop style="stop-color:#0555ff" offset=".153"/><stop style="stop-color:#0eaddc" offset=".651"/><stop style="stop-color:#00e05c" offset="1"/></linearGradient><path style="fill:url(#A)" d="M64.8 60h2.8v2.8h-2.8z"/><linearGradient y2="80.443" x2="69.912" y1="50.065" x1="69.912" gradientUnits="userSpaceOnUse" id="B"><stop style="stop-color:#0555ff" offset=".153"/><stop style="stop-color:#0eaddc" offset=".651"/><stop style="stop-color:#00e05c" offset="1"/></linearGradient><path style="fill:url(#B)" d="M68.5 60h2.8v2.8h-2.8z"/><linearGradient y2="80.449" x2="73.015" y1="50.071" x1="73.015" gradientUnits="userSpaceOnUse" id="C"><stop style="stop-color:#0555ff" offset=".153"/><stop style="stop-color:#0eaddc" offset=".651"/><stop style="stop-color:#00e05c" offset="1"/></linearGradient><path style="fill:url(#C)" d="M73.7 62.4c-.5-.8-1-1.6-1.6-2.4v2.7h1.8c-.1 0-.1-.2-.2-.3z"/><linearGradient y2="80.185" x2="14.383" y1="51.326" x1="14.383" gradientUnits="userSpaceOnUse" id="D"><stop style="stop-color:#0555ff" offset=".153"/><stop style="stop-color:#0eaddc" offset=".651"/><stop style="stop-color:#00e05c" offset="1"/></linearGradient><path style="fill:url(#D)" d="M13.8 63.9c-.4.7-.6 1.6-.6 2.4h2.5v-2.5l-1.9.1z"/><linearGradient y2="80.185" x2="18.085" y1="51.326" x1="18.085" gradientUnits="userSpaceOnUse" id="E"><stop style="stop-color:#0555ff" offset=".153"/><stop style="stop-color:#0eaddc" offset=".651"/><stop style="stop-color:#00e05c" offset="1"/></linearGradient><path style="fill:url(#E)" d="M16.9 63.9h2.5v2.5h-2.5z"/><linearGradient y2="80.185" x2="21.787" y1="51.326" x1="21.787" gradientUnits="userSpaceOnUse" id="F"><stop style="stop-color:#0555ff" offset=".153"/><stop style="stop-color:#0eaddc" offset=".651"/><stop style="stop-color:#00e05c" offset="1"/></linearGradient><path style="fill:url(#F)" d="M20.6 63.9h2.5v2.5h-2.5z"/><linearGradient y2="80.185" x2="25.489" y1="51.326" x1="25.489" gradientUnits="userSpaceOnUse" id="G"><stop style="stop-color:#0555ff" offset=".153"/><stop style="stop-color:#0eaddc" offset=".651"/><stop style="stop-color:#00e05c" offset="1"/></linearGradient><path style="fill:url(#G)" d="M24.3 63.9h2.5v2.5h-2.5z"/><linearGradient y2="80.185" x2="29.191" y1="51.326" x1="29.191" gradientUnits="userSpaceOnUse" id="H"><stop style="stop-color:#0555ff" offset=".153"/><stop style="stop-color:#0eaddc" offset=".651"/><stop style="stop-color:#00e05c" offset="1"/></linearGradient><path style="fill:url(#H)" d="M28 63.9h2.5v2.5H28z"/><linearGradient y2="80.185" x2="32.893" y1="51.326" x1="32.893" gradientUnits="userSpaceOnUse" id="I"><stop style="stop-color:#0555ff" offset=".153"/><stop style="stop-color:#0eaddc" offset=".651"/><stop style="stop-color:#00e05c" offset="1"/></linearGradient><path style="fill:url(#I)" d="M31.7 63.9h2.5v2.5h-2.5z"/><linearGradient y2="80.185" x2="36.595" y1="51.326" x1="36.595" gradientUnits="userSpaceOnUse" id="J"><stop style="stop-color:#0555ff" offset=".153"/><stop style="stop-color:#0eaddc" offset=".651"/><stop style="stop-color:#00e05c" offset="1"/></linearGradient><path style="fill:url(#J)" d="M35.4 63.9h2.5v2.5h-2.5z"/><linearGradient y2="80.185" x2="40.297" y1="51.326" x1="40.297" gradientUnits="userSpaceOnUse" id="K"><stop style="stop-color:#0555ff" offset=".153"/><stop style="stop-color:#0eaddc" offset=".651"/><stop style="stop-color:#00e05c" offset="1"/></linearGradient><path style="fill:url(#K)" d="M39.1 63.9h2.5v2.5h-2.5z"/><linearGradient y2="80.185" x2="43.999" y1="51.326" x1="43.999" gradientUnits="userSpaceOnUse" id="L"><stop style="stop-color:#0555ff" offset=".153"/><stop style="stop-color:#0eaddc" offset=".651"/><stop style="stop-color:#00e05c" offset="1"/></linearGradient><path style="fill:url(#L)" d="M43 64.1h2v2h-2z"/><linearGradient y2="80.185" x2="47.701" y1="51.326" x1="47.701" gradientUnits="userSpaceOnUse" id="M"><stop style="stop-color:#0555ff" offset=".153"/><stop style="stop-color:#0eaddc" offset=".651"/><stop style="stop-color:#00e05c" offset="1"/></linearGradient><path style="fill:url(#M)" d="M46.5 63.9H49v2.5h-2.5z"/><linearGradient y2="80.185" x2="51.403" y1="51.326" x1="51.403" gradientUnits="userSpaceOnUse" id="N"><stop style="stop-color:#0555ff" offset=".153"/><stop style="stop-color:#0eaddc" offset=".651"/><stop style="stop-color:#00e05c" offset="1"/></linearGradient><path style="fill:url(#N)" d="M50.2 63.9h2.5v2.5h-2.5z"/><linearGradient y2="80.185" x2="55.105" y1="51.326" x1="55.105" gradientUnits="userSpaceOnUse" id="O"><stop style="stop-color:#0555ff" offset=".153"/><stop style="stop-color:#0eaddc" offset=".651"/><stop style="stop-color:#00e05c" offset="1"/></linearGradient><path style="fill:url(#O)" d="M53.9 63.9h2.5v2.5h-2.5z"/><linearGradient y2="80.185" x2="58.807" y1="51.326" x1="58.807" gradientUnits="userSpaceOnUse" id="P"><stop style="stop-color:#0555ff" offset=".153"/><stop style="stop-color:#0eaddc" offset=".651"/><stop style="stop-color:#00e05c" offset="1"/></linearGradient><path style="fill:url(#P)" d="M57.6 63.9h2.5v2.5h-2.5z"/><linearGradient y2="80.185" x2="62.508" y1="51.326" x1="62.508" gradientUnits="userSpaceOnUse" id="Q"><stop style="stop-color:#0555ff" offset=".153"/><stop style="stop-color:#0eaddc" offset=".651"/><stop style="stop-color:#00e05c" offset="1"/></linearGradient><path style="fill:url(#Q)" d="M61.3 63.9h2.5v2.5h-2.5z"/><linearGradient y2="80.185" x2="66.211" y1="51.326" x1="66.211" gradientUnits="userSpaceOnUse" id="R"><stop style="stop-color:#0555ff" offset=".153"/><stop style="stop-color:#0eaddc" offset=".651"/><stop style="stop-color:#00e05c" offset="1"/></linearGradient><path style="fill:url(#R)" d="M65 63.9h2.5v2.5H65z"/><linearGradient y2="80.185" x2="69.912" y1="51.326" x1="69.912" gradientUnits="userSpaceOnUse" id="S"><stop style="stop-color:#0555ff" offset=".153"/><stop style="stop-color:#0eaddc" offset=".651"/><stop style="stop-color:#00e05c" offset="1"/></linearGradient><path style="fill:url(#S)" d="M68.7 63.9h2.5v2.5h-2.5z"/><linearGradient y2="80.185" x2="73.614" y1="51.326" x1="73.614" gradientUnits="userSpaceOnUse" id="T"><stop style="stop-color:#0555ff" offset=".153"/><stop style="stop-color:#0eaddc" offset=".651"/><stop style="stop-color:#00e05c" offset="1"/></linearGradient><path style="fill:url(#T)" d="M74.2 63.9h-1.8v2.5h2.5v-.1c-.1-.9-.3-1.7-.7-2.4z"/><linearGradient y2="80.276" x2="14.383" y1="52.859" x1="14.383" gradientUnits="userSpaceOnUse" id="U"><stop style="stop-color:#0555ff" offset=".153"/><stop style="stop-color:#0eaddc" offset=".651"/><stop style="stop-color:#00e05c" offset="1"/></linearGradient><path style="fill:url(#U)" d="M13.3 67.7h2.1v2.1h-2.1z"/><linearGradient y2="80.276" x2="18.085" y1="52.859" x1="18.085" gradientUnits="userSpaceOnUse" id="V"><stop style="stop-color:#0555ff" offset=".153"/><stop style="stop-color:#0eaddc" offset=".651"/><stop style="stop-color:#00e05c" offset="1"/></linearGradient><path style="fill:url(#V)" d="M17 67.7h2.1v2.1H17z"/><linearGradient y2="80.276" x2="21.787" y1="52.859" x1="21.787" gradientUnits="userSpaceOnUse" id="W"><stop style="stop-color:#0555ff" offset=".153"/><stop style="stop-color:#0eaddc" offset=".651"/><stop style="stop-color:#00e05c" offset="1"/></linearGradient><path style="fill:url(#W)" d="M20.7 67.7h2.1v2.1h-2.1z"/><linearGradient y2="80.276" x2="25.489" y1="52.859" x1="25.489" gradientUnits="userSpaceOnUse" id="X"><stop style="stop-color:#0555ff" offset=".153"/><stop style="stop-color:#0eaddc" offset=".651"/><stop style="stop-color:#00e05c" offset="1"/></linearGradient><path style="fill:url(#X)" d="M24.4 67.7h2.1v2.1h-2.1z"/><linearGradient y2="80.276" x2="29.191" y1="52.859" x1="29.191" gradientUnits="userSpaceOnUse" id="Y"><stop style="stop-color:#0555ff" offset=".153"/><stop style="stop-color:#0eaddc" offset=".651"/><stop style="stop-color:#00e05c" offset="1"/></linearGradient><path style="fill:url(#Y)" d="M28.1 67.7h2.1v2.1h-2.1z"/><linearGradient y2="80.276" x2="32.893" y1="52.859" x1="32.893" gradientUnits="userSpaceOnUse" id="Z"><stop style="stop-color:#0555ff" offset=".153"/><stop style="stop-color:#0eaddc" offset=".651"/><stop style="stop-color:#00e05c" offset="1"/></linearGradient><path style="fill:url(#Z)" d="M31.8 67.7h2.1v2.1h-2.1z"/><linearGradient y2="80.276" x2="36.595" y1="52.859" x1="36.595" gradientUnits="userSpaceOnUse" id="aa"><stop style="stop-color:#0555ff" offset=".153"/><stop style="stop-color:#0eaddc" offset=".651"/><stop style="stop-color:#00e05c" offset="1"/></linearGradient><path style="fill:url(#aa)" d="M35.5 67.7h2.1v2.1h-2.1z"/><linearGradient y2="80.276" x2="40.297" y1="52.859" x1="40.297" gradientUnits="userSpaceOnUse" id="ab"><stop style="stop-color:#0555ff" offset=".153"/><stop style="stop-color:#0eaddc" offset=".651"/><stop style="stop-color:#00e05c" offset="1"/></linearGradient><path style="fill:url(#ab)" d="M39.3 67.7h2.1v2.1h-2.1z"/><linearGradient y2="80.276" x2="47.701" y1="52.859" x1="47.701" gradientUnits="userSpaceOnUse" id="ac"><stop style="stop-color:#0555ff" offset=".153"/><stop style="stop-color:#0eaddc" offset=".651"/><stop style="stop-color:#00e05c" offset="1"/></linearGradient><path style="fill:url(#ac)" d="M46.7 67.7h2.1v2.1h-2.1z"/><linearGradient y2="80.276" x2="51.403" y1="52.859" x1="51.403" gradientUnits="userSpaceOnUse" id="ad"><stop style="stop-color:#0555ff" offset=".153"/><stop style="stop-color:#0eaddc" offset=".651"/><stop style="stop-color:#00e05c" offset="1"/></linearGradient><path style="fill:url(#ad)" d="M50.3 67.7h2.1v2.1h-2.1z"/><linearGradient y2="80.276" x2="55.105" y1="52.859" x1="55.105" gradientUnits="userSpaceOnUse" id="ae"><stop style="stop-color:#0555ff" offset=".153"/><stop style="stop-color:#0eaddc" offset=".651"/><stop style="stop-color:#00e05c" offset="1"/></linearGradient><path style="fill:url(#ae)" d="M54 67.7h2.1v2.1H54z"/><linearGradient y2="80.276" x2="58.807" y1="52.859" x1="58.807" gradientUnits="userSpaceOnUse" id="af"><stop style="stop-color:#0555ff" offset=".153"/><stop style="stop-color:#0eaddc" offset=".651"/><stop style="stop-color:#00e05c" offset="1"/></linearGradient><path style="fill:url(#af)" d="M57.7 67.7h2.1v2.1h-2.1z"/><linearGradient y2="80.276" x2="62.508" y1="52.859" x1="62.508" gradientUnits="userSpaceOnUse" id="ag"><stop style="stop-color:#0555ff" offset=".153"/><stop style="stop-color:#0eaddc" offset=".651"/><stop style="stop-color:#00e05c" offset="1"/></linearGradient><path style="fill:url(#ag)" d="M61.4 67.7h2.1v2.1h-2.1z"/><linearGradient y2="80.276" x2="66.211" y1="52.859" x1="66.211" gradientUnits="userSpaceOnUse" id="ah"><stop style="stop-color:#0555ff" offset=".153"/><stop style="stop-color:#0eaddc" offset=".651"/><stop style="stop-color:#00e05c" offset="1"/></linearGradient><path style="fill:url(#ah)" d="M65.1 67.7h2.1v2.1h-2.1z"/><linearGradient y2="80.276" x2="69.912" y1="52.859" x1="69.912" gradientUnits="userSpaceOnUse" id="ai"><stop style="stop-color:#0555ff" offset=".153"/><stop style="stop-color:#0eaddc" offset=".651"/><stop style="stop-color:#00e05c" offset="1"/></linearGradient><path style="fill:url(#ai)" d="M68.8 67.7h2.1v2.1h-2.1z"/><linearGradient y2="80.276" x2="73.614" y1="52.859" x1="73.614" gradientUnits="userSpaceOnUse" id="aj"><stop style="stop-color:#0555ff" offset=".153"/><stop style="stop-color:#0eaddc" offset=".651"/><stop style="stop-color:#00e05c" offset="1"/></linearGradient><path style="fill:url(#aj)" d="M72.5 67.7h2.1v2.1h-2.1z"/><linearGradient y2="80.69" x2="14.383" y1="54.644" x1="14.383" gradientUnits="userSpaceOnUse" id="ak"><stop style="stop-color:#0555ff" offset=".153"/><stop style="stop-color:#0eaddc" offset=".651"/><stop style="stop-color:#00e05c" offset="1"/></linearGradient><path style="fill:url(#ak)" d="M13.5 71.6h1.8v1.8h-1.8z"/><linearGradient y2="80.69" x2="18.085" y1="54.644" x1="18.085" gradientUnits="userSpaceOnUse" id="al"><stop style="stop-color:#0555ff" offset=".153"/><stop style="stop-color:#0eaddc" offset=".651"/><stop style="stop-color:#00e05c" offset="1"/></linearGradient><path style="fill:url(#al)" d="M17.2 71.6H19v1.8h-1.8z"/><linearGradient y2="80.69" x2="21.787" y1="54.644" x1="21.787" gradientUnits="userSpaceOnUse" id="am"><stop style="stop-color:#0555ff" offset=".153"/><stop style="stop-color:#0eaddc" offset=".651"/><stop style="stop-color:#00e05c" offset="1"/></linearGradient><path style="fill:url(#am)" d="M20.9 71.6h1.8v1.8h-1.8z"/><linearGradient y2="80.69" x2="25.489" y1="54.644" x1="25.489" gradientUnits="userSpaceOnUse" id="an"><stop style="stop-color:#0555ff" offset=".153"/><stop style="stop-color:#0eaddc" offset=".651"/><stop style="stop-color:#00e05c" offset="1"/></linearGradient><path style="fill:url(#an)" d="M24.6 71.6h1.8v1.8h-1.8z"/><linearGradient y2="80.69" x2="29.191" y1="54.644" x1="29.191" gradientUnits="userSpaceOnUse" id="ao"><stop style="stop-color:#0555ff" offset=".153"/><stop style="stop-color:#0eaddc" offset=".651"/><stop style="stop-color:#00e05c" offset="1"/></linearGradient><path style="fill:url(#ao)" d="M28.3 71.6h1.8v1.8h-1.8z"/><linearGradient y2="80.69" x2="32.893" y1="54.644" x1="32.893" gradientUnits="userSpaceOnUse" id="ap"><stop style="stop-color:#0555ff" offset=".153"/><stop style="stop-color:#0eaddc" offset=".651"/><stop style="stop-color:#00e05c" offset="1"/></linearGradient><path style="fill:url(#ap)" d="M32 71.6h1.8v1.8H32z"/><linearGradient y2="80.69" x2="36.595" y1="54.644" x1="36.595" gradientUnits="userSpaceOnUse" id="aq"><stop style="stop-color:#0555ff" offset=".153"/><stop style="stop-color:#0eaddc" offset=".651"/><stop style="stop-color:#00e05c" offset="1"/></linearGradient><path style="fill:url(#aq)" d="M35.7 71.6h1.8v1.8h-1.8z"/><linearGradient y2="80.69" x2="40.297" y1="54.644" x1="40.297" gradientUnits="userSpaceOnUse" id="ar"><stop style="stop-color:#0555ff" offset=".153"/><stop style="stop-color:#0eaddc" offset=".651"/><stop style="stop-color:#00e05c" offset="1"/></linearGradient><path style="fill:url(#ar)" d="M39.8 72h1v1h-1z"/><linearGradient y2="80.69" x2="47.701" y1="54.644" x1="47.701" gradientUnits="userSpaceOnUse" id="as"><stop style="stop-color:#0555ff" offset=".153"/><stop style="stop-color:#0eaddc" offset=".651"/><stop style="stop-color:#00e05c" offset="1"/></linearGradient><path style="fill:url(#as)" d="M47.2 72h1v1h-1z"/><linearGradient y2="80.69" x2="51.403" y1="54.644" x1="51.403" gradientUnits="userSpaceOnUse" id="at"><stop style="stop-color:#0555ff" offset=".153"/><stop style="stop-color:#0eaddc" offset=".651"/><stop style="stop-color:#00e05c" offset="1"/></linearGradient><path style="fill:url(#at)" d="M50.5 71.6h1.8v1.8h-1.8z"/><linearGradient y2="80.69" x2="55.105" y1="54.644" x1="55.105" gradientUnits="userSpaceOnUse" id="au"><stop style="stop-color:#0555ff" offset=".153"/><stop style="stop-color:#0eaddc" offset=".651"/><stop style="stop-color:#00e05c" offset="1"/></linearGradient><path style="fill:url(#au)" d="M54.2 71.6H56v1.8h-1.8z"/><linearGradient y2="80.69" x2="58.807" y1="54.644" x1="58.807" gradientUnits="userSpaceOnUse" id="av"><stop style="stop-color:#0555ff" offset=".153"/><stop style="stop-color:#0eaddc" offset=".651"/><stop style="stop-color:#00e05c" offset="1"/></linearGradient><path style="fill:url(#av)" d="M57.9 71.6h1.8v1.8h-1.8z"/><linearGradient y2="80.69" x2="62.509" y1="54.644" x1="62.509" gradientUnits="userSpaceOnUse" id="aw"><stop style="stop-color:#0555ff" offset=".153"/><stop style="stop-color:#0eaddc" offset=".651"/><stop style="stop-color:#00e05c" offset="1"/></linearGradient><path style="fill:url(#aw)" d="M61.6 71.6h1.8v1.8h-1.8z"/><linearGradient y2="80.69" x2="66.211" y1="54.644" x1="66.211" gradientUnits="userSpaceOnUse" id="ax"><stop style="stop-color:#0555ff" offset=".153"/><stop style="stop-color:#0eaddc" offset=".651"/><stop style="stop-color:#00e05c" offset="1"/></linearGradient><path style="fill:url(#ax)" d="M65.3 71.6h1.8v1.8h-1.8z"/><linearGradient y2="80.69" x2="69.912" y1="54.644" x1="69.912" gradientUnits="userSpaceOnUse" id="ay"><stop style="stop-color:#0555ff" offset=".153"/><stop style="stop-color:#0eaddc" offset=".651"/><stop style="stop-color:#00e05c" offset="1"/></linearGradient><path style="fill:url(#ay)" d="M69 71.6h1.8v1.8H69z"/><linearGradient y2="80.69" x2="73.614" y1="54.644" x1="73.614" gradientUnits="userSpaceOnUse" id="az"><stop style="stop-color:#0555ff" offset=".153"/><stop style="stop-color:#0eaddc" offset=".651"/><stop style="stop-color:#00e05c" offset="1"/></linearGradient><path style="fill:url(#az)" d="M72.7 71.6h1.8v1.8h-1.8z"/><linearGradient y2="81.404" x2="14.384" y1="56.66" x1="14.384" gradientUnits="userSpaceOnUse" id="aA"><stop style="stop-color:#0555ff" offset=".153"/><stop style="stop-color:#0eaddc" offset=".651"/><stop style="stop-color:#00e05c" offset="1"/></linearGradient><path style="fill:url(#aA)" d="M13.7 75.5h1.4v1.4h-1.4z"/><linearGradient y2="81.404" x2="18.086" y1="56.66" x1="18.086" gradientUnits="userSpaceOnUse" id="aB"><stop style="stop-color:#0555ff" offset=".153"/><stop style="stop-color:#0eaddc" offset=".651"/><stop style="stop-color:#00e05c" offset="1"/></linearGradient><path style="fill:url(#aB)" d="M17.3 75.4h1.5v1.5h-1.5z"/><linearGradient y2="81.404" x2="21.787" y1="56.66" x1="21.787" gradientUnits="userSpaceOnUse" id="aC"><stop style="stop-color:#0555ff" offset=".153"/><stop style="stop-color:#0eaddc" offset=".651"/><stop style="stop-color:#00e05c" offset="1"/></linearGradient><path style="fill:url(#aC)" d="M21 75.4h1.5v1.5H21z"/><linearGradient y2="81.404" x2="25.489" y1="56.66" x1="25.489" gradientUnits="userSpaceOnUse" id="aD"><stop style="stop-color:#0555ff" offset=".153"/><stop style="stop-color:#0eaddc" offset=".651"/><stop style="stop-color:#00e05c" offset="1"/></linearGradient><path style="fill:url(#aD)" d="M24.7 75.4h1.5v1.5h-1.5z"/><linearGradient y2="81.404" x2="29.191" y1="56.66" x1="29.191" gradientUnits="userSpaceOnUse" id="aE"><stop style="stop-color:#0555ff" offset=".153"/><stop style="stop-color:#0eaddc" offset=".651"/><stop style="stop-color:#00e05c" offset="1"/></linearGradient><path style="fill:url(#aE)" d="M28.4 75.4h1.5v1.5h-1.5z"/><linearGradient y2="81.404" x2="32.893" y1="56.66" x1="32.893" gradientUnits="userSpaceOnUse" id="aF"><stop style="stop-color:#0555ff" offset=".153"/><stop style="stop-color:#0eaddc" offset=".651"/><stop style="stop-color:#00e05c" offset="1"/></linearGradient><path style="fill:url(#aF)" d="M32.1 75.4h1.5v1.5h-1.5z"/><linearGradient y2="81.404" x2="36.595" y1="56.66" x1="36.595" gradientUnits="userSpaceOnUse" id="aG"><stop style="stop-color:#0555ff" offset=".153"/><stop style="stop-color:#0eaddc" offset=".651"/><stop style="stop-color:#00e05c" offset="1"/></linearGradient><path style="fill:url(#aG)" d="M36 75.6h1.3v1.3H36z"/><linearGradient y2="81.404" x2="51.403" y1="56.66" x1="51.403" gradientUnits="userSpaceOnUse" id="aH"><stop style="stop-color:#0555ff" offset=".153"/><stop style="stop-color:#0eaddc" offset=".651"/><stop style="stop-color:#00e05c" offset="1"/></linearGradient><path style="fill:url(#aH)" d="M50.8 75.6h1.3v1.3h-1.3z"/><linearGradient y2="81.404" x2="55.105" y1="56.66" x1="55.105" gradientUnits="userSpaceOnUse" id="aI"><stop style="stop-color:#0555ff" offset=".153"/><stop style="stop-color:#0eaddc" offset=".651"/><stop style="stop-color:#00e05c" offset="1"/></linearGradient><path style="fill:url(#aI)" d="M54.3 75.4h1.5v1.5h-1.5z"/><linearGradient y2="81.404" x2="58.807" y1="56.66" x1="58.807" gradientUnits="userSpaceOnUse" id="aJ"><stop style="stop-color:#0555ff" offset=".153"/><stop style="stop-color:#0eaddc" offset=".651"/><stop style="stop-color:#00e05c" offset="1"/></linearGradient><path style="fill:url(#aJ)" d="M58 75.4h1.5v1.5H58z"/><linearGradient y2="81.404" x2="62.509" y1="56.66" x1="62.509" gradientUnits="userSpaceOnUse" id="aK"><stop style="stop-color:#0555ff" offset=".153"/><stop style="stop-color:#0eaddc" offset=".651"/><stop style="stop-color:#00e05c" offset="1"/></linearGradient><path style="fill:url(#aK)" d="M61.7 75.4h1.5v1.5h-1.5z"/><linearGradient y2="81.404" x2="66.211" y1="56.66" x1="66.211" gradientUnits="userSpaceOnUse" id="aL"><stop style="stop-color:#0555ff" offset=".153"/><stop style="stop-color:#0eaddc" offset=".651"/><stop style="stop-color:#00e05c" offset="1"/></linearGradient><path style="fill:url(#aL)" d="M65.4 75.4h1.5v1.5h-1.5z"/><linearGradient y2="81.404" x2="69.912" y1="56.66" x1="69.912" gradientUnits="userSpaceOnUse" id="aM"><stop style="stop-color:#0555ff" offset=".153"/><stop style="stop-color:#0eaddc" offset=".651"/><stop style="stop-color:#00e05c" offset="1"/></linearGradient><path style="fill:url(#aM)" d="M69.1 75.4h1.5v1.5h-1.5z"/><linearGradient y2="81.404" x2="73.614" y1="56.66" x1="73.614" gradientUnits="userSpaceOnUse" id="aN"><stop style="stop-color:#0555ff" offset=".153"/><stop style="stop-color:#0eaddc" offset=".651"/><stop style="stop-color:#00e05c" offset="1"/></linearGradient><path style="fill:url(#aN)" d="M72.9 75.5h1.4v1.4h-1.4z"/><linearGradient y2="82.396" x2="18.086" y1="58.89" x1="18.086" gradientUnits="userSpaceOnUse" id="aO"><stop style="stop-color:#0555ff" offset=".153"/><stop style="stop-color:#0eaddc" offset=".651"/><stop style="stop-color:#00e05c" offset="1"/></linearGradient><path style="fill:url(#aO)" d="M17.5 79.3h1.2v1.2h-1.2z"/><linearGradient y2="82.396" x2="21.787" y1="58.89" x1="21.787" gradientUnits="userSpaceOnUse" id="aP"><stop style="stop-color:#0555ff" offset=".153"/><stop style="stop-color:#0eaddc" offset=".651"/><stop style="stop-color:#00e05c" offset="1"/></linearGradient><path style="fill:url(#aP)" d="M21.1 79.3h1.3v1.3h-1.3z"/><linearGradient y2="82.396" x2="25.489" y1="58.89" x1="25.489" gradientUnits="userSpaceOnUse" id="aQ"><stop style="stop-color:#0555ff" offset=".153"/><stop style="stop-color:#0eaddc" offset=".651"/><stop style="stop-color:#00e05c" offset="1"/></linearGradient><path style="fill:url(#aQ)" d="M24.9 79.3h1.3v1.3h-1.3z"/><linearGradient y2="82.396" x2="29.191" y1="58.89" x1="29.191" gradientUnits="userSpaceOnUse" id="aR"><stop style="stop-color:#0555ff" offset=".153"/><stop style="stop-color:#0eaddc" offset=".651"/><stop style="stop-color:#00e05c" offset="1"/></linearGradient><path style="fill:url(#aR)" d="M28.6 79.3h1.3v1.3h-1.3z"/><linearGradient y2="82.396" x2="32.893" y1="58.89" x1="32.893" gradientUnits="userSpaceOnUse" id="aS"><stop style="stop-color:#0555ff" offset=".153"/><stop style="stop-color:#0eaddc" offset=".651"/><stop style="stop-color:#00e05c" offset="1"/></linearGradient><path style="fill:url(#aS)" d="M32.4 79.4h1.1v1.1h-1.1z"/><linearGradient y2="82.396" x2="55.105" y1="58.89" x1="55.105" gradientUnits="userSpaceOnUse" id="aT"><stop style="stop-color:#0555ff" offset=".153"/><stop style="stop-color:#0eaddc" offset=".651"/><stop style="stop-color:#00e05c" offset="1"/></linearGradient><path style="fill:url(#aT)" d="M54.6 79.4h1.1v1.1h-1.1z"/><linearGradient y2="82.396" x2="58.807" y1="58.89" x1="58.807" gradientUnits="userSpaceOnUse" id="aU"><stop style="stop-color:#0555ff" offset=".153"/><stop style="stop-color:#0eaddc" offset=".651"/><stop style="stop-color:#00e05c" offset="1"/></linearGradient><path style="fill:url(#aU)" d="M58.2 79.3h1.3v1.3h-1.3z"/><linearGradient y2="82.396" x2="62.509" y1="58.89" x1="62.509" gradientUnits="userSpaceOnUse" id="aV"><stop style="stop-color:#0555ff" offset=".153"/><stop style="stop-color:#0eaddc" offset=".651"/><stop style="stop-color:#00e05c" offset="1"/></linearGradient><path style="fill:url(#aV)" d="M61.9 79.3h1.3v1.3h-1.3z"/><linearGradient y2="82.396" x2="66.211" y1="58.89" x1="66.211" gradientUnits="userSpaceOnUse" id="aW"><stop style="stop-color:#0555ff" offset=".153"/><stop style="stop-color:#0eaddc" offset=".651"/><stop style="stop-color:#00e05c" offset="1"/></linearGradient><path style="fill:url(#aW)" d="M65.6 79.3h1.3v1.3h-1.3z"/><linearGradient y2="82.396" x2="69.912" y1="58.89" x1="69.912" gradientUnits="userSpaceOnUse" id="aX"><stop style="stop-color:#0555ff" offset=".153"/><stop style="stop-color:#0eaddc" offset=".651"/><stop style="stop-color:#00e05c" offset="1"/></linearGradient><path style="fill:url(#aX)" d="M69.3 79.3h1.2v1.2h-1.2z"/><linearGradient y2="83.651" x2="21.787" y1="58.908" x1="21.787" gradientUnits="userSpaceOnUse" id="aY"><stop style="stop-color:#0555ff" offset=".153"/><stop style="stop-color:#0eaddc" offset=".651"/><stop style="stop-color:#00e05c" offset="1"/></linearGradient><path style="fill:url(#aY)" d="M21.4 83.2h.7v.7h-.7z"/><linearGradient y2="83.651" x2="25.489" y1="58.908" x1="25.489" gradientUnits="userSpaceOnUse" id="aZ"><stop style="stop-color:#0555ff" offset=".153"/><stop style="stop-color:#0eaddc" offset=".651"/><stop style="stop-color:#00e05c" offset="1"/></linearGradient><path style="fill:url(#aZ)" d="M25.1 83.2h.8v.8h-.8z"/><linearGradient y2="83.651" x2="29.191" y1="58.908" x1="29.191" gradientUnits="userSpaceOnUse" id="ba"><stop style="stop-color:#0555ff" offset=".153"/><stop style="stop-color:#0eaddc" offset=".651"/><stop style="stop-color:#00e05c" offset="1"/></linearGradient><path style="fill:url(#ba)" d="M28.9 83.3h.5v.5h-.5z"/><linearGradient y2="83.651" x2="58.807" y1="58.908" x1="58.807" gradientUnits="userSpaceOnUse" id="bb"><stop style="stop-color:#0555ff" offset=".153"/><stop style="stop-color:#0eaddc" offset=".651"/><stop style="stop-color:#00e05c" offset="1"/></linearGradient><path style="fill:url(#bb)" d="M58.5 83.3h.5v.5h-.5z"/><linearGradient y2="83.651" x2="62.508" y1="58.908" x1="62.508" gradientUnits="userSpaceOnUse" id="bc"><stop style="stop-color:#0555ff" offset=".153"/><stop style="stop-color:#0eaddc" offset=".651"/><stop style="stop-color:#00e05c" offset="1"/></linearGradient><path style="fill:url(#bc)" d="M62.1 83.2h.8v.8h-.8z"/><linearGradient y2="83.651" x2="66.21" y1="58.908" x1="66.21" gradientUnits="userSpaceOnUse" id="bd"><stop style="stop-color:#0555ff" offset=".153"/><stop style="stop-color:#0eaddc" offset=".651"/><stop style="stop-color:#00e05c" offset="1"/></linearGradient><path style="fill:url(#bd)" d="M65.9 83.2h.7v.7h-.7z"/><linearGradient y2="83.445" x2="20.611" y1="47.914" x1="20.611" gradientUnits="userSpaceOnUse" id="be"><stop style="stop-color:#0555ff" offset=".153"/><stop style="stop-color:#0eaddc" offset=".651"/><stop style="stop-color:#00e05c" offset="1"/></linearGradient><path style="fill:url(#be)" d="M19.6 55.4h2c-.4-.3-.8-.5-1.2-.8-.2.3-.5.6-.8.8z"/><linearGradient y2="83.445" x2="67.402" y1="47.914" x1="67.402" gradientUnits="userSpaceOnUse" id="bf"><stop style="stop-color:#0555ff" offset=".153"/><stop style="stop-color:#0eaddc" offset=".651"/><stop style="stop-color:#00e05c" offset="1"/></linearGradient><path style="fill:url(#bf)" d="M68.1 55.4h.3c-.3-.3-.6-.5-.8-.8-.4.3-.8.5-1.2.8z"/></g></g></svg>