<svg xmlns="http://www.w3.org/2000/svg" viewBox="0 0 510 80" style="enable-background:new 0 0 510 80" xml:space="preserve"><linearGradient id="a" gradientUnits="userSpaceOnUse" x1="41.879" y1="49.283" x2="41.879" y2=".44"><stop offset="0" style="stop-color:#0555ff"/><stop offset=".601" style="stop-color:#0eaddc"/><stop offset="1" style="stop-color:#14e084"/></linearGradient><path d="M57.5 0c-1.7 0-3 1.3-3 3 0 .5.1 1 .4 1.4L43.3 16l-1.4-1.4-1.4 1.4L28.9 4.4c.2-.4.3-.9.3-1.4 0-1.7-1.3-3-3-3s-3 1.3-3 3 1.3 3 3 3c.5 0 1-.1 1.4-.4l11.6 11.6-1.4 1.4 4.1 4.1 4.1-4.1-1.4-1.4L56.1 5.6c.4.3.9.4 1.4.4 1.7 0 3-1.3 3-3s-1.3-3-3-3zM26.2 4.3c-.7 0-1.2-.6-1.2-1.3s.6-1.3 1.3-1.3 1.3.6 1.3 1.3c-.1.7-.7 1.2-1.4 1.3.1 0 .1 0 0 0zm17.3 14.3-1.6 1.6-1.6-1.6.2-.2 1.2-1.2.2-.2.2.2 1.2 1.2.2.2zm14-14.3c-.7 0-1.2-.6-1.3-1.2 0-.7.6-1.3 1.3-1.3s1.3.6 1.3 1.3-.6 1.2-1.3 1.2z" style="fill:url(#a)"/><linearGradient id="b" gradientUnits="userSpaceOnUse" x1="322.353" y1="2449.659" x2="322.353" y2="2404.178" gradientTransform="rotate(45.001 3071.636 861.891)"><stop offset="0" style="stop-color:#3b64ff"/><stop offset=".029" style="stop-color:#0590ff"/><stop offset="1" style="stop-color:#14d384"/></linearGradient><path d="M29.7 15.7c0 .1.1.1.1.1l-.1-.1z" style="fill:url(#b)"/><linearGradient id="c" gradientUnits="userSpaceOnUse" x1="339.502" y1="2449.659" x2="339.502" y2="2401.287" gradientTransform="rotate(45.001 3071.636 861.891)"><stop offset="0" style="stop-color:#3b64ff"/><stop offset=".029" style="stop-color:#0590ff"/><stop offset="1" style="stop-color:#14d384"/></linearGradient><path d="m54.1 15.7-.1.1s0-.1.1-.1z" style="fill:url(#c)"/><linearGradient id="d" gradientUnits="userSpaceOnUse" x1="41.879" y1="55.808" x2="41.879" y2="7.195"><stop offset="0" style="stop-color:#ff1d25"/><stop offset="1" style="stop-color:#ffb400"/></linearGradient><path d="m54.1 15.7-.1.1-4 4c-.7.7-1.3 1.4-1.9 2.2-2.1 2.4-6.1 6.8-6.1 6.8s-4-4.4-6.1-6.8c-.6-.7-1.3-1.5-1.9-2.2l-4-4-.1-.1C13.6.8-2.3-.1.3 20.3c.9 6.9 3 13.4 7.4 18.6 7.7 10.8 20.2 17.7 34.2 17.7S68.4 49.7 76.1 39c4.4-5.3 6.5-11.8 7.4-18.6C86-.1 70.2.8 54.1 15.7z" style="fill:url(#d)"/><path d="M64.7 49.9c-5.4-4.7-12.1-7.7-19.4-8.4-9.7-.9-19.1 2.3-26.1 8.4 6.6 4.3 14.4 6.7 22.8 6.7 8.2 0 16.1-2.4 22.7-6.7z" style="fill:#d2071a"/><g><path d="m136.5 23.5-11.2 27.3L114 23.5h-12.9l18.5 43.1h11.3l18.5-43.1zM172.1 22.4c-6.7 0-12.4 2-16.7 6.2-4.4 4.1-6.6 9.6-6.6 16.3v.3c0 6.7 2.1 12.1 6.5 16.2 4.4 4 10 6.1 17.1 6.1 7.3 0 13.5-2.6 18.5-7.9l-7.4-7.1c-3 2.8-6.5 4.2-10.5 4.2-6.7 0-11.2-3.3-11.4-8.5H194c.1-1.3.2-2.6.2-4.1 0-6.2-2-11.4-6.1-15.5-4.2-4.1-9.4-6.2-16-6.2zm-10.4 17.7c.3-4 4.9-7.2 10.4-7.2 5.1 0 9.3 3.2 9.3 7.2h-19.7zM222.4 33.7c3.8 0 7.1 1.5 9.9 4.4l8-7.9c-4.9-5.4-10.8-8-17.9-8-6.7 0-12.3 2.2-16.9 6.6-4.5 4.4-6.8 9.7-6.8 16.2s2.3 11.9 6.8 16.2c4.6 4.4 10.2 6.5 16.9 6.5 7.1 0 13.1-2.6 17.9-8l-8-7.9c-2.8 3-6.1 4.4-9.9 4.4-6.1 0-11-4.7-11-11.2 0-6.5 4.7-11.3 11-11.3zM264.7 12.1l-2.9 2.8L241.6 35h10.7v17.3c0 10.2 5 15.4 14.9 15.4 2.5 0 4.5-.2 6.2-.6V55.8c-1.5.3-2.6.3-3.2.3-3.8 0-5.5-1.6-5.5-5.7V35h9.6V23.5h-9.6V12.1zM301.8 22.2c-6.7 0-12.3 2.2-17 6.7-4.6 4.4-6.9 9.7-6.9 16.1 0 6.4 2.3 11.8 6.9 16.2 4.7 4.4 10.3 6.6 17 6.6 6.6 0 12.2-2.2 16.9-6.6 4.7-4.4 7-9.8 7-16.2 0-6.4-2.3-11.8-7-16.1-4.7-4.4-10.3-6.7-16.9-6.7zm8 30.9c-2.1 2.1-4.8 3.2-7.9 3.2-3.2 0-5.8-1.1-7.9-3.2s-3.2-4.9-3.2-8c0-3.2 1.1-5.8 3.2-7.9 2.1-2.2 4.8-3.3 7.9-3.3 3.2 0 5.8 1.1 7.9 3.3 2.1 2.1 3.2 4.8 3.2 7.9 0 3.1-1.1 5.7-3.2 8zM372.5 5.4c-4 0-7.3 3.2-7.3 7.3 0 4 3.2 7.2 7.3 7.2 4 0 7.3-3.2 7.3-7.2 0-4.1-3.3-7.3-7.3-7.3zM366.2 23.5h12.7v43h-12.7zM425.5 32.5v-9h-38.6v11.2h20.9l-23.2 23.8v8.1h41.8V55.4h-22.7zM453.8 22.4c-6.7 0-12.4 2-16.7 6.2-4.4 4.1-6.6 9.6-6.6 16.3v.3c0 6.7 2.1 12.1 6.5 16.2 4.4 4 10 6.1 17.1 6.1 7.3 0 13.5-2.6 18.5-7.9l-7.4-7.1c-3 2.8-6.5 4.2-10.5 4.2-6.7 0-11.2-3.3-11.4-8.5h32.5c.1-1.3.2-2.6.2-4.1 0-6.2-2-11.4-6.1-15.5-4.2-4.1-9.5-6.2-16.1-6.2zm-10.4 17.7c.3-4 4.9-7.2 10.4-7.2 5.1 0 9.3 3.2 9.3 7.2h-19.7zM332.1 28.4v38.1h12.7V36.8c6-.4 12.5-.7 15.5-.8V23.7c-20.4 0-28.2 3.6-28.2 3.6v1.1zM510 23.7c-20.4 0-28.2 3.6-28.2 3.6v39.3h12.7V36.8c6-.4 12.5-.7 15.5-.8V23.7z"/></g><g><linearGradient id="e" gradientUnits="userSpaceOnUse" x1="15.966" y1="44.999" x2="15.966" y2="76.977"><stop offset=".153" style="stop-color:#0555ff"/><stop offset=".651" style="stop-color:#0eaddc"/><stop offset="1" style="stop-color:#00e05c"/></linearGradient><path d="M14.4 55.2h3.2V52h-.4c-1.1 1-2 2-2.8 3.2z" style="fill:url(#e)"/><linearGradient id="f" gradientUnits="userSpaceOnUse" x1="19.667" y1="44.999" x2="19.667" y2="76.977"><stop offset=".153" style="stop-color:#0555ff"/><stop offset=".651" style="stop-color:#0eaddc"/><stop offset="1" style="stop-color:#00e05c"/></linearGradient><path d="M18.1 52v3.2h3.2v-2.7c-.3-.2-.6-.3-.9-.5h-2.3z" style="fill:url(#f)"/><linearGradient id="g" gradientUnits="userSpaceOnUse" x1="23.369" y1="44.999" x2="23.369" y2="76.977"><stop offset=".153" style="stop-color:#0555ff"/><stop offset=".651" style="stop-color:#0eaddc"/><stop offset="1" style="stop-color:#00e05c"/></linearGradient><path d="M21.8 55.2H25v-.8c-1.1-.5-2.1-1-3.2-1.6v2.4z" style="fill:url(#g)"/><linearGradient id="h" gradientUnits="userSpaceOnUse" x1="26.117" y1="44.999" x2="26.117" y2="76.977"><stop offset=".153" style="stop-color:#0555ff"/><stop offset=".651" style="stop-color:#0eaddc"/><stop offset="1" style="stop-color:#00e05c"/></linearGradient><path d="M25.5 55.2h1.3c-.4-.2-.8-.4-1.3-.5v.5z" style="fill:url(#h)"/><linearGradient id="i" gradientUnits="userSpaceOnUse" x1="57.64" y1="44.999" x2="57.64" y2="76.977"><stop offset=".153" style="stop-color:#0555ff"/><stop offset=".651" style="stop-color:#0eaddc"/><stop offset="1" style="stop-color:#00e05c"/></linearGradient><path d="M58.3 55.2v-.5c-.4.2-.8.4-1.3.5h1.3z" style="fill:url(#i)"/><linearGradient id="j" gradientUnits="userSpaceOnUse" x1="60.388" y1="44.999" x2="60.388" y2="76.977"><stop offset=".153" style="stop-color:#0555ff"/><stop offset=".651" style="stop-color:#0eaddc"/><stop offset="1" style="stop-color:#00e05c"/></linearGradient><path d="M58.8 55.2H62v-2.4c-1 .6-2.1 1.1-3.2 1.6v.8z" style="fill:url(#j)"/><linearGradient id="k" gradientUnits="userSpaceOnUse" x1="64.09" y1="44.999" x2="64.09" y2="76.977"><stop offset=".153" style="stop-color:#0555ff"/><stop offset=".651" style="stop-color:#0eaddc"/><stop offset="1" style="stop-color:#00e05c"/></linearGradient><path d="M62.5 55.2h3.2V52h-2.3c-.3.2-.6.3-.9.5v2.7z" style="fill:url(#k)"/><linearGradient id="l" gradientUnits="userSpaceOnUse" x1="67.792" y1="44.999" x2="67.792" y2="76.977"><stop offset=".153" style="stop-color:#0555ff"/><stop offset=".651" style="stop-color:#0eaddc"/><stop offset="1" style="stop-color:#00e05c"/></linearGradient><path d="M66.2 52v3.2h3.2c-.9-1.2-1.8-2.2-2.7-3.2h-.5z" style="fill:url(#l)"/><linearGradient id="m" gradientUnits="userSpaceOnUse" x1="12.864" y1="46.072" x2="12.864" y2="76.451"><stop offset=".153" style="stop-color:#0555ff"/><stop offset=".651" style="stop-color:#0eaddc"/><stop offset="1" style="stop-color:#00e05c"/></linearGradient><path d="M12 58.8h1.8v-2.7c-.5.7-1 1.4-1.4 2.1-.2.2-.3.4-.4.6z" style="fill:url(#m)"/><linearGradient id="n" gradientUnits="userSpaceOnUse" x1="15.965" y1="46.065" x2="15.965" y2="76.443"><stop offset=".153" style="stop-color:#0555ff"/><stop offset=".651" style="stop-color:#0eaddc"/><stop offset="1" style="stop-color:#00e05c"/></linearGradient><path style="fill:url(#n)" d="M14.6 56h2.8v2.8h-2.8z"/><linearGradient id="o" gradientUnits="userSpaceOnUse" x1="19.667" y1="46.065" x2="19.667" y2="76.443"><stop offset=".153" style="stop-color:#0555ff"/><stop offset=".651" style="stop-color:#0eaddc"/><stop offset="1" style="stop-color:#00e05c"/></linearGradient><path style="fill:url(#o)" d="M18.3 56h2.8v2.8h-2.8z"/><linearGradient id="p" gradientUnits="userSpaceOnUse" x1="23.369" y1="46.065" x2="23.369" y2="76.443"><stop offset=".153" style="stop-color:#0555ff"/><stop offset=".651" style="stop-color:#0eaddc"/><stop offset="1" style="stop-color:#00e05c"/></linearGradient><path style="fill:url(#p)" d="M22 56h2.8v2.8H22z"/><linearGradient id="q" gradientUnits="userSpaceOnUse" x1="27.07" y1="46.065" x2="27.07" y2="76.443"><stop offset=".153" style="stop-color:#0555ff"/><stop offset=".651" style="stop-color:#0eaddc"/><stop offset="1" style="stop-color:#00e05c"/></linearGradient><path style="fill:url(#q)" d="M25.7 56h2.8v2.8h-2.8z"/><linearGradient id="r" gradientUnits="userSpaceOnUse" x1="30.772" y1="46.065" x2="30.772" y2="76.443"><stop offset=".153" style="stop-color:#0555ff"/><stop offset=".651" style="stop-color:#0eaddc"/><stop offset="1" style="stop-color:#00e05c"/></linearGradient><path d="M29.4 58.8h2.8v-1.9c-.9-.2-1.9-.5-2.8-.8v2.7z" style="fill:url(#r)"/><linearGradient id="s" gradientUnits="userSpaceOnUse" x1="34.474" y1="46.065" x2="34.474" y2="76.443"><stop offset=".153" style="stop-color:#0555ff"/><stop offset=".651" style="stop-color:#0eaddc"/><stop offset="1" style="stop-color:#00e05c"/></linearGradient><path d="M33.1 58.8h2.8v-1.2c-.9-.1-1.9-.3-2.8-.5v1.7z" style="fill:url(#s)"/><linearGradient id="t" gradientUnits="userSpaceOnUse" x1="38.176" y1="46.065" x2="38.176" y2="76.443"><stop offset=".153" style="stop-color:#0555ff"/><stop offset=".651" style="stop-color:#0eaddc"/><stop offset="1" style="stop-color:#00e05c"/></linearGradient><path d="M36.8 58.8h2.8V58c-.9-.1-1.9-.1-2.8-.2v1z" style="fill:url(#t)"/><linearGradient id="u" gradientUnits="userSpaceOnUse" x1="41.878" y1="46.065" x2="41.878" y2="76.443"><stop offset=".153" style="stop-color:#0555ff"/><stop offset=".651" style="stop-color:#0eaddc"/><stop offset="1" style="stop-color:#00e05c"/></linearGradient><path d="M40.5 58v.8h2.8V58h-2.8z" style="fill:url(#u)"/><linearGradient id="v" gradientUnits="userSpaceOnUse" x1="45.58" y1="46.065" x2="45.58" y2="76.443"><stop offset=".153" style="stop-color:#0555ff"/><stop offset=".651" style="stop-color:#0eaddc"/><stop offset="1" style="stop-color:#00e05c"/></linearGradient><path d="M44.2 58.8H47v-1.1c-.9.1-1.9.2-2.8.2v.9z" style="fill:url(#v)"/><linearGradient id="w" gradientUnits="userSpaceOnUse" x1="49.282" y1="46.065" x2="49.282" y2="76.443"><stop offset=".153" style="stop-color:#0555ff"/><stop offset=".651" style="stop-color:#0eaddc"/><stop offset="1" style="stop-color:#00e05c"/></linearGradient><path d="M47.9 58.8h2.8v-1.7c-.9.2-1.9.4-2.8.5v1.2z" style="fill:url(#w)"/><linearGradient id="x" gradientUnits="userSpaceOnUse" x1="52.984" y1="46.065" x2="52.984" y2="76.443"><stop offset=".153" style="stop-color:#0555ff"/><stop offset=".651" style="stop-color:#0eaddc"/><stop offset="1" style="stop-color:#00e05c"/></linearGradient><path d="M51.6 58.8h2.8v-2.7c-.9.3-1.9.5-2.8.8v1.9z" style="fill:url(#x)"/><linearGradient id="y" gradientUnits="userSpaceOnUse" x1="56.686" y1="46.065" x2="56.686" y2="76.443"><stop offset=".153" style="stop-color:#0555ff"/><stop offset=".651" style="stop-color:#0eaddc"/><stop offset="1" style="stop-color:#00e05c"/></linearGradient><path style="fill:url(#y)" d="M55.3 56h2.8v2.8h-2.8z"/><linearGradient id="z" gradientUnits="userSpaceOnUse" x1="60.388" y1="46.065" x2="60.388" y2="76.443"><stop offset=".153" style="stop-color:#0555ff"/><stop offset=".651" style="stop-color:#0eaddc"/><stop offset="1" style="stop-color:#00e05c"/></linearGradient><path style="fill:url(#z)" d="M59 56h2.8v2.8H59z"/><linearGradient id="A" gradientUnits="userSpaceOnUse" x1="64.09" y1="46.065" x2="64.09" y2="76.443"><stop offset=".153" style="stop-color:#0555ff"/><stop offset=".651" style="stop-color:#0eaddc"/><stop offset="1" style="stop-color:#00e05c"/></linearGradient><path style="fill:url(#A)" d="M62.7 56h2.8v2.8h-2.8z"/><linearGradient id="B" gradientUnits="userSpaceOnUse" x1="67.792" y1="46.065" x2="67.792" y2="76.443"><stop offset=".153" style="stop-color:#0555ff"/><stop offset=".651" style="stop-color:#0eaddc"/><stop offset="1" style="stop-color:#00e05c"/></linearGradient><path style="fill:url(#B)" d="M66.4 56h2.8v2.8h-2.8z"/><linearGradient id="C" gradientUnits="userSpaceOnUse" x1="70.894" y1="46.071" x2="70.894" y2="76.449"><stop offset=".153" style="stop-color:#0555ff"/><stop offset=".651" style="stop-color:#0eaddc"/><stop offset="1" style="stop-color:#00e05c"/></linearGradient><path d="M71.6 58.4c-.5-.8-1-1.6-1.6-2.4v2.7h1.8c-.1 0-.2-.2-.2-.3z" style="fill:url(#C)"/><linearGradient id="D" gradientUnits="userSpaceOnUse" x1="12.263" y1="47.326" x2="12.263" y2="76.185"><stop offset=".153" style="stop-color:#0555ff"/><stop offset=".651" style="stop-color:#0eaddc"/><stop offset="1" style="stop-color:#00e05c"/></linearGradient><path d="M11.6 59.9c-.4.7-.6 1.6-.6 2.4h2.5v-2.5l-1.9.1z" style="fill:url(#D)"/><linearGradient id="E" gradientUnits="userSpaceOnUse" x1="15.965" y1="47.326" x2="15.965" y2="76.185"><stop offset=".153" style="stop-color:#0555ff"/><stop offset=".651" style="stop-color:#0eaddc"/><stop offset="1" style="stop-color:#00e05c"/></linearGradient><path style="fill:url(#E)" d="M14.7 59.9h2.5v2.5h-2.5z"/><linearGradient id="F" gradientUnits="userSpaceOnUse" x1="19.667" y1="47.326" x2="19.667" y2="76.185"><stop offset=".153" style="stop-color:#0555ff"/><stop offset=".651" style="stop-color:#0eaddc"/><stop offset="1" style="stop-color:#00e05c"/></linearGradient><path style="fill:url(#F)" d="M18.4 59.9h2.5v2.5h-2.5z"/><linearGradient id="G" gradientUnits="userSpaceOnUse" x1="23.369" y1="47.326" x2="23.369" y2="76.185"><stop offset=".153" style="stop-color:#0555ff"/><stop offset=".651" style="stop-color:#0eaddc"/><stop offset="1" style="stop-color:#00e05c"/></linearGradient><path style="fill:url(#G)" d="M22.1 59.9h2.5v2.5h-2.5z"/><linearGradient id="H" gradientUnits="userSpaceOnUse" x1="27.07" y1="47.326" x2="27.07" y2="76.185"><stop offset=".153" style="stop-color:#0555ff"/><stop offset=".651" style="stop-color:#0eaddc"/><stop offset="1" style="stop-color:#00e05c"/></linearGradient><path style="fill:url(#H)" d="M25.8 59.9h2.5v2.5h-2.5z"/><linearGradient id="I" gradientUnits="userSpaceOnUse" x1="30.773" y1="47.326" x2="30.773" y2="76.185"><stop offset=".153" style="stop-color:#0555ff"/><stop offset=".651" style="stop-color:#0eaddc"/><stop offset="1" style="stop-color:#00e05c"/></linearGradient><path style="fill:url(#I)" d="M29.5 59.9H32v2.5h-2.5z"/><linearGradient id="J" gradientUnits="userSpaceOnUse" x1="34.474" y1="47.326" x2="34.474" y2="76.185"><stop offset=".153" style="stop-color:#0555ff"/><stop offset=".651" style="stop-color:#0eaddc"/><stop offset="1" style="stop-color:#00e05c"/></linearGradient><path style="fill:url(#J)" d="M33.2 59.9h2.5v2.5h-2.5z"/><linearGradient id="K" gradientUnits="userSpaceOnUse" x1="38.176" y1="47.326" x2="38.176" y2="76.185"><stop offset=".153" style="stop-color:#0555ff"/><stop offset=".651" style="stop-color:#0eaddc"/><stop offset="1" style="stop-color:#00e05c"/></linearGradient><path style="fill:url(#K)" d="M36.9 59.9h2.5v2.5h-2.5z"/><linearGradient id="L" gradientUnits="userSpaceOnUse" x1="41.878" y1="47.326" x2="41.878" y2="76.185"><stop offset=".153" style="stop-color:#0555ff"/><stop offset=".651" style="stop-color:#0eaddc"/><stop offset="1" style="stop-color:#00e05c"/></linearGradient><path style="fill:url(#L)" d="M40.9 60.1h2v2h-2z"/><linearGradient id="M" gradientUnits="userSpaceOnUse" x1="45.58" y1="47.326" x2="45.58" y2="76.185"><stop offset=".153" style="stop-color:#0555ff"/><stop offset=".651" style="stop-color:#0eaddc"/><stop offset="1" style="stop-color:#00e05c"/></linearGradient><path style="fill:url(#M)" d="M44.3 59.9h2.5v2.5h-2.5z"/><linearGradient id="N" gradientUnits="userSpaceOnUse" x1="49.282" y1="47.326" x2="49.282" y2="76.185"><stop offset=".153" style="stop-color:#0555ff"/><stop offset=".651" style="stop-color:#0eaddc"/><stop offset="1" style="stop-color:#00e05c"/></linearGradient><path style="fill:url(#N)" d="M48 59.9h2.5v2.5H48z"/><linearGradient id="O" gradientUnits="userSpaceOnUse" x1="52.984" y1="47.326" x2="52.984" y2="76.185"><stop offset=".153" style="stop-color:#0555ff"/><stop offset=".651" style="stop-color:#0eaddc"/><stop offset="1" style="stop-color:#00e05c"/></linearGradient><path style="fill:url(#O)" d="M51.8 59.9h2.5v2.5h-2.5z"/><linearGradient id="P" gradientUnits="userSpaceOnUse" x1="56.686" y1="47.326" x2="56.686" y2="76.185"><stop offset=".153" style="stop-color:#0555ff"/><stop offset=".651" style="stop-color:#0eaddc"/><stop offset="1" style="stop-color:#00e05c"/></linearGradient><path style="fill:url(#P)" d="M55.5 59.9H58v2.5h-2.5z"/><linearGradient id="Q" gradientUnits="userSpaceOnUse" x1="60.388" y1="47.326" x2="60.388" y2="76.185"><stop offset=".153" style="stop-color:#0555ff"/><stop offset=".651" style="stop-color:#0eaddc"/><stop offset="1" style="stop-color:#00e05c"/></linearGradient><path style="fill:url(#Q)" d="M59.2 59.9h2.5v2.5h-2.5z"/><linearGradient id="R" gradientUnits="userSpaceOnUse" x1="64.09" y1="47.326" x2="64.09" y2="76.185"><stop offset=".153" style="stop-color:#0555ff"/><stop offset=".651" style="stop-color:#0eaddc"/><stop offset="1" style="stop-color:#00e05c"/></linearGradient><path style="fill:url(#R)" d="M62.9 59.9h2.5v2.5h-2.5z"/><linearGradient id="S" gradientUnits="userSpaceOnUse" x1="67.792" y1="47.326" x2="67.792" y2="76.185"><stop offset=".153" style="stop-color:#0555ff"/><stop offset=".651" style="stop-color:#0eaddc"/><stop offset="1" style="stop-color:#00e05c"/></linearGradient><path style="fill:url(#S)" d="M66.6 59.9h2.5v2.5h-2.5z"/><linearGradient id="T" gradientUnits="userSpaceOnUse" x1="71.494" y1="47.326" x2="71.494" y2="76.185"><stop offset=".153" style="stop-color:#0555ff"/><stop offset=".651" style="stop-color:#0eaddc"/><stop offset="1" style="stop-color:#00e05c"/></linearGradient><path d="M72.1 59.9h-1.8v2.5h2.5v-.1c-.1-.9-.3-1.7-.7-2.4z" style="fill:url(#T)"/><linearGradient id="U" gradientUnits="userSpaceOnUse" x1="12.263" y1="48.859" x2="12.263" y2="76.276"><stop offset=".153" style="stop-color:#0555ff"/><stop offset=".651" style="stop-color:#0eaddc"/><stop offset="1" style="stop-color:#00e05c"/></linearGradient><path style="fill:url(#U)" d="M11.2 63.7h2.1v2.1h-2.1z"/><linearGradient id="V" gradientUnits="userSpaceOnUse" x1="15.965" y1="48.859" x2="15.965" y2="76.276"><stop offset=".153" style="stop-color:#0555ff"/><stop offset=".651" style="stop-color:#0eaddc"/><stop offset="1" style="stop-color:#00e05c"/></linearGradient><path style="fill:url(#V)" d="M14.9 63.7H17v2.1h-2.1z"/><linearGradient id="W" gradientUnits="userSpaceOnUse" x1="19.667" y1="48.859" x2="19.667" y2="76.276"><stop offset=".153" style="stop-color:#0555ff"/><stop offset=".651" style="stop-color:#0eaddc"/><stop offset="1" style="stop-color:#00e05c"/></linearGradient><path style="fill:url(#W)" d="M18.6 63.7h2.1v2.1h-2.1z"/><linearGradient id="X" gradientUnits="userSpaceOnUse" x1="23.369" y1="48.859" x2="23.369" y2="76.276"><stop offset=".153" style="stop-color:#0555ff"/><stop offset=".651" style="stop-color:#0eaddc"/><stop offset="1" style="stop-color:#00e05c"/></linearGradient><path style="fill:url(#X)" d="M22.3 63.7h2.1v2.1h-2.1z"/><linearGradient id="Y" gradientUnits="userSpaceOnUse" x1="27.07" y1="48.859" x2="27.07" y2="76.276"><stop offset=".153" style="stop-color:#0555ff"/><stop offset=".651" style="stop-color:#0eaddc"/><stop offset="1" style="stop-color:#00e05c"/></linearGradient><path style="fill:url(#Y)" d="M26 63.7h2.1v2.1H26z"/><linearGradient id="Z" gradientUnits="userSpaceOnUse" x1="30.772" y1="48.859" x2="30.772" y2="76.276"><stop offset=".153" style="stop-color:#0555ff"/><stop offset=".651" style="stop-color:#0eaddc"/><stop offset="1" style="stop-color:#00e05c"/></linearGradient><path style="fill:url(#Z)" d="M29.7 63.7h2.1v2.1h-2.1z"/><linearGradient id="aa" gradientUnits="userSpaceOnUse" x1="34.474" y1="48.859" x2="34.474" y2="76.276"><stop offset=".153" style="stop-color:#0555ff"/><stop offset=".651" style="stop-color:#0eaddc"/><stop offset="1" style="stop-color:#00e05c"/></linearGradient><path style="fill:url(#aa)" d="M33.4 63.7h2.1v2.1h-2.1z"/><linearGradient id="ab" gradientUnits="userSpaceOnUse" x1="38.176" y1="48.859" x2="38.176" y2="76.276"><stop offset=".153" style="stop-color:#0555ff"/><stop offset=".651" style="stop-color:#0eaddc"/><stop offset="1" style="stop-color:#00e05c"/></linearGradient><path style="fill:url(#ab)" d="M37.1 63.7h2.1v2.1h-2.1z"/><linearGradient id="ac" gradientUnits="userSpaceOnUse" x1="45.58" y1="48.859" x2="45.58" y2="76.276"><stop offset=".153" style="stop-color:#0555ff"/><stop offset=".651" style="stop-color:#0eaddc"/><stop offset="1" style="stop-color:#00e05c"/></linearGradient><path style="fill:url(#ac)" d="M44.5 63.7h2.1v2.1h-2.1z"/><linearGradient id="ad" gradientUnits="userSpaceOnUse" x1="49.282" y1="48.859" x2="49.282" y2="76.276"><stop offset=".153" style="stop-color:#0555ff"/><stop offset=".651" style="stop-color:#0eaddc"/><stop offset="1" style="stop-color:#00e05c"/></linearGradient><path style="fill:url(#ad)" d="M48.2 63.7h2.1v2.1h-2.1z"/><linearGradient id="ae" gradientUnits="userSpaceOnUse" x1="52.984" y1="48.859" x2="52.984" y2="76.276"><stop offset=".153" style="stop-color:#0555ff"/><stop offset=".651" style="stop-color:#0eaddc"/><stop offset="1" style="stop-color:#00e05c"/></linearGradient><path style="fill:url(#ae)" d="M51.9 63.7H54v2.1h-2.1z"/><linearGradient id="af" gradientUnits="userSpaceOnUse" x1="56.686" y1="48.859" x2="56.686" y2="76.276"><stop offset=".153" style="stop-color:#0555ff"/><stop offset=".651" style="stop-color:#0eaddc"/><stop offset="1" style="stop-color:#00e05c"/></linearGradient><path style="fill:url(#af)" d="M55.6 63.7h2.1v2.1h-2.1z"/><linearGradient id="ag" gradientUnits="userSpaceOnUse" x1="60.388" y1="48.859" x2="60.388" y2="76.276"><stop offset=".153" style="stop-color:#0555ff"/><stop offset=".651" style="stop-color:#0eaddc"/><stop offset="1" style="stop-color:#00e05c"/></linearGradient><path style="fill:url(#ag)" d="M59.3 63.7h2.1v2.1h-2.1z"/><linearGradient id="ah" gradientUnits="userSpaceOnUse" x1="64.09" y1="48.859" x2="64.09" y2="76.276"><stop offset=".153" style="stop-color:#0555ff"/><stop offset=".651" style="stop-color:#0eaddc"/><stop offset="1" style="stop-color:#00e05c"/></linearGradient><path style="fill:url(#ah)" d="M63 63.7h2.1v2.1H63z"/><linearGradient id="ai" gradientUnits="userSpaceOnUse" x1="67.792" y1="48.859" x2="67.792" y2="76.276"><stop offset=".153" style="stop-color:#0555ff"/><stop offset=".651" style="stop-color:#0eaddc"/><stop offset="1" style="stop-color:#00e05c"/></linearGradient><path style="fill:url(#ai)" d="M66.7 63.7h2.1v2.1h-2.1z"/><linearGradient id="aj" gradientUnits="userSpaceOnUse" x1="71.494" y1="48.859" x2="71.494" y2="76.276"><stop offset=".153" style="stop-color:#0555ff"/><stop offset=".651" style="stop-color:#0eaddc"/><stop offset="1" style="stop-color:#00e05c"/></linearGradient><path style="fill:url(#aj)" d="M70.4 63.7h2.1v2.1h-2.1z"/><linearGradient id="ak" gradientUnits="userSpaceOnUse" x1="12.263" y1="50.644" x2="12.263" y2="76.69"><stop offset=".153" style="stop-color:#0555ff"/><stop offset=".651" style="stop-color:#0eaddc"/><stop offset="1" style="stop-color:#00e05c"/></linearGradient><path style="fill:url(#ak)" d="M11.3 67.6h1.8v1.8h-1.8z"/><linearGradient id="al" gradientUnits="userSpaceOnUse" x1="15.965" y1="50.644" x2="15.965" y2="76.69"><stop offset=".153" style="stop-color:#0555ff"/><stop offset=".651" style="stop-color:#0eaddc"/><stop offset="1" style="stop-color:#00e05c"/></linearGradient><path style="fill:url(#al)" d="M15 67.6h1.8v1.8H15z"/><linearGradient id="am" gradientUnits="userSpaceOnUse" x1="19.667" y1="50.644" x2="19.667" y2="76.69"><stop offset=".153" style="stop-color:#0555ff"/><stop offset=".651" style="stop-color:#0eaddc"/><stop offset="1" style="stop-color:#00e05c"/></linearGradient><path style="fill:url(#am)" d="M18.7 67.6h1.8v1.8h-1.8z"/><linearGradient id="an" gradientUnits="userSpaceOnUse" x1="23.368" y1="50.644" x2="23.368" y2="76.69"><stop offset=".153" style="stop-color:#0555ff"/><stop offset=".651" style="stop-color:#0eaddc"/><stop offset="1" style="stop-color:#00e05c"/></linearGradient><path style="fill:url(#an)" d="M22.4 67.6h1.8v1.8h-1.8z"/><linearGradient id="ao" gradientUnits="userSpaceOnUse" x1="27.07" y1="50.644" x2="27.07" y2="76.69"><stop offset=".153" style="stop-color:#0555ff"/><stop offset=".651" style="stop-color:#0eaddc"/><stop offset="1" style="stop-color:#00e05c"/></linearGradient><path style="fill:url(#ao)" d="M26.1 67.6h1.8v1.8h-1.8z"/><linearGradient id="ap" gradientUnits="userSpaceOnUse" x1="30.772" y1="50.644" x2="30.772" y2="76.69"><stop offset=".153" style="stop-color:#0555ff"/><stop offset=".651" style="stop-color:#0eaddc"/><stop offset="1" style="stop-color:#00e05c"/></linearGradient><path style="fill:url(#ap)" d="M29.9 67.6h1.8v1.8h-1.8z"/><linearGradient id="aq" gradientUnits="userSpaceOnUse" x1="34.474" y1="50.644" x2="34.474" y2="76.69"><stop offset=".153" style="stop-color:#0555ff"/><stop offset=".651" style="stop-color:#0eaddc"/><stop offset="1" style="stop-color:#00e05c"/></linearGradient><path style="fill:url(#aq)" d="M33.6 67.6h1.8v1.8h-1.8z"/><linearGradient id="ar" gradientUnits="userSpaceOnUse" x1="38.176" y1="50.644" x2="38.176" y2="76.69"><stop offset=".153" style="stop-color:#0555ff"/><stop offset=".651" style="stop-color:#0eaddc"/><stop offset="1" style="stop-color:#00e05c"/></linearGradient><path style="fill:url(#ar)" d="M37.7 68h1v1h-1z"/><linearGradient id="as" gradientUnits="userSpaceOnUse" x1="45.58" y1="50.644" x2="45.58" y2="76.69"><stop offset=".153" style="stop-color:#0555ff"/><stop offset=".651" style="stop-color:#0eaddc"/><stop offset="1" style="stop-color:#00e05c"/></linearGradient><path style="fill:url(#as)" d="M45.1 68h1v1h-1z"/><linearGradient id="at" gradientUnits="userSpaceOnUse" x1="49.282" y1="50.644" x2="49.282" y2="76.69"><stop offset=".153" style="stop-color:#0555ff"/><stop offset=".651" style="stop-color:#0eaddc"/><stop offset="1" style="stop-color:#00e05c"/></linearGradient><path style="fill:url(#at)" d="M48.4 67.6h1.8v1.8h-1.8z"/><linearGradient id="au" gradientUnits="userSpaceOnUse" x1="52.984" y1="50.644" x2="52.984" y2="76.69"><stop offset=".153" style="stop-color:#0555ff"/><stop offset=".651" style="stop-color:#0eaddc"/><stop offset="1" style="stop-color:#00e05c"/></linearGradient><path style="fill:url(#au)" d="M52.1 67.6h1.8v1.8h-1.8z"/><linearGradient id="av" gradientUnits="userSpaceOnUse" x1="56.686" y1="50.644" x2="56.686" y2="76.69"><stop offset=".153" style="stop-color:#0555ff"/><stop offset=".651" style="stop-color:#0eaddc"/><stop offset="1" style="stop-color:#00e05c"/></linearGradient><path style="fill:url(#av)" d="M55.8 67.6h1.8v1.8h-1.8z"/><linearGradient id="aw" gradientUnits="userSpaceOnUse" x1="60.388" y1="50.644" x2="60.388" y2="76.69"><stop offset=".153" style="stop-color:#0555ff"/><stop offset=".651" style="stop-color:#0eaddc"/><stop offset="1" style="stop-color:#00e05c"/></linearGradient><path style="fill:url(#aw)" d="M59.5 67.6h1.8v1.8h-1.8z"/><linearGradient id="ax" gradientUnits="userSpaceOnUse" x1="64.09" y1="50.644" x2="64.09" y2="76.69"><stop offset=".153" style="stop-color:#0555ff"/><stop offset=".651" style="stop-color:#0eaddc"/><stop offset="1" style="stop-color:#00e05c"/></linearGradient><path style="fill:url(#ax)" d="M63.2 67.6H65v1.8h-1.8z"/><linearGradient id="ay" gradientUnits="userSpaceOnUse" x1="67.792" y1="50.644" x2="67.792" y2="76.69"><stop offset=".153" style="stop-color:#0555ff"/><stop offset=".651" style="stop-color:#0eaddc"/><stop offset="1" style="stop-color:#00e05c"/></linearGradient><path style="fill:url(#ay)" d="M66.9 67.6h1.8v1.8h-1.8z"/><linearGradient id="az" gradientUnits="userSpaceOnUse" x1="71.494" y1="50.644" x2="71.494" y2="76.69"><stop offset=".153" style="stop-color:#0555ff"/><stop offset=".651" style="stop-color:#0eaddc"/><stop offset="1" style="stop-color:#00e05c"/></linearGradient><path style="fill:url(#az)" d="M70.6 67.6h1.8v1.8h-1.8z"/><linearGradient id="aA" gradientUnits="userSpaceOnUse" x1="12.263" y1="52.66" x2="12.263" y2="77.404"><stop offset=".153" style="stop-color:#0555ff"/><stop offset=".651" style="stop-color:#0eaddc"/><stop offset="1" style="stop-color:#00e05c"/></linearGradient><path style="fill:url(#aA)" d="M11.6 71.5H13v1.4h-1.4z"/><linearGradient id="aB" gradientUnits="userSpaceOnUse" x1="15.965" y1="52.66" x2="15.965" y2="77.403"><stop offset=".153" style="stop-color:#0555ff"/><stop offset=".651" style="stop-color:#0eaddc"/><stop offset="1" style="stop-color:#00e05c"/></linearGradient><path style="fill:url(#aB)" d="M15.2 71.4h1.5v1.5h-1.5z"/><linearGradient id="aC" gradientUnits="userSpaceOnUse" x1="19.667" y1="52.66" x2="19.667" y2="77.403"><stop offset=".153" style="stop-color:#0555ff"/><stop offset=".651" style="stop-color:#0eaddc"/><stop offset="1" style="stop-color:#00e05c"/></linearGradient><path style="fill:url(#aC)" d="M18.9 71.4h1.5v1.5h-1.5z"/><linearGradient id="aD" gradientUnits="userSpaceOnUse" x1="23.369" y1="52.66" x2="23.369" y2="77.403"><stop offset=".153" style="stop-color:#0555ff"/><stop offset=".651" style="stop-color:#0eaddc"/><stop offset="1" style="stop-color:#00e05c"/></linearGradient><path style="fill:url(#aD)" d="M22.6 71.4h1.5v1.5h-1.5z"/><linearGradient id="aE" gradientUnits="userSpaceOnUse" x1="27.07" y1="52.66" x2="27.07" y2="77.403"><stop offset=".153" style="stop-color:#0555ff"/><stop offset=".651" style="stop-color:#0eaddc"/><stop offset="1" style="stop-color:#00e05c"/></linearGradient><path style="fill:url(#aE)" d="M26.3 71.4h1.5v1.5h-1.5z"/><linearGradient id="aF" gradientUnits="userSpaceOnUse" x1="30.773" y1="52.66" x2="30.773" y2="77.403"><stop offset=".153" style="stop-color:#0555ff"/><stop offset=".651" style="stop-color:#0eaddc"/><stop offset="1" style="stop-color:#00e05c"/></linearGradient><path style="fill:url(#aF)" d="M30 71.4h1.5v1.5H30z"/><linearGradient id="aG" gradientUnits="userSpaceOnUse" x1="34.474" y1="52.66" x2="34.474" y2="77.404"><stop offset=".153" style="stop-color:#0555ff"/><stop offset=".651" style="stop-color:#0eaddc"/><stop offset="1" style="stop-color:#00e05c"/></linearGradient><path style="fill:url(#aG)" d="M33.8 71.6h1.3v1.3h-1.3z"/><linearGradient id="aH" gradientUnits="userSpaceOnUse" x1="49.282" y1="52.66" x2="49.282" y2="77.404"><stop offset=".153" style="stop-color:#0555ff"/><stop offset=".651" style="stop-color:#0eaddc"/><stop offset="1" style="stop-color:#00e05c"/></linearGradient><path style="fill:url(#aH)" d="M48.6 71.6h1.3v1.3h-1.3z"/><linearGradient id="aI" gradientUnits="userSpaceOnUse" x1="52.984" y1="52.66" x2="52.984" y2="77.403"><stop offset=".153" style="stop-color:#0555ff"/><stop offset=".651" style="stop-color:#0eaddc"/><stop offset="1" style="stop-color:#00e05c"/></linearGradient><path style="fill:url(#aI)" d="M52.2 71.4h1.5v1.5h-1.5z"/><linearGradient id="aJ" gradientUnits="userSpaceOnUse" x1="56.686" y1="52.66" x2="56.686" y2="77.403"><stop offset=".153" style="stop-color:#0555ff"/><stop offset=".651" style="stop-color:#0eaddc"/><stop offset="1" style="stop-color:#00e05c"/></linearGradient><path style="fill:url(#aJ)" d="M55.9 71.4h1.5v1.5h-1.5z"/><linearGradient id="aK" gradientUnits="userSpaceOnUse" x1="60.388" y1="52.66" x2="60.388" y2="77.403"><stop offset=".153" style="stop-color:#0555ff"/><stop offset=".651" style="stop-color:#0eaddc"/><stop offset="1" style="stop-color:#00e05c"/></linearGradient><path style="fill:url(#aK)" d="M59.6 71.4h1.5v1.5h-1.5z"/><linearGradient id="aL" gradientUnits="userSpaceOnUse" x1="64.09" y1="52.66" x2="64.09" y2="77.403"><stop offset=".153" style="stop-color:#0555ff"/><stop offset=".651" style="stop-color:#0eaddc"/><stop offset="1" style="stop-color:#00e05c"/></linearGradient><path style="fill:url(#aL)" d="M63.3 71.4h1.5v1.5h-1.5z"/><linearGradient id="aM" gradientUnits="userSpaceOnUse" x1="67.792" y1="52.66" x2="67.792" y2="77.403"><stop offset=".153" style="stop-color:#0555ff"/><stop offset=".651" style="stop-color:#0eaddc"/><stop offset="1" style="stop-color:#00e05c"/></linearGradient><path style="fill:url(#aM)" d="M67 71.4h1.5v1.5H67z"/><linearGradient id="aN" gradientUnits="userSpaceOnUse" x1="71.493" y1="52.66" x2="71.493" y2="77.404"><stop offset=".153" style="stop-color:#0555ff"/><stop offset=".651" style="stop-color:#0eaddc"/><stop offset="1" style="stop-color:#00e05c"/></linearGradient><path style="fill:url(#aN)" d="M70.8 71.5h1.4v1.4h-1.4z"/><linearGradient id="aO" gradientUnits="userSpaceOnUse" x1="15.965" y1="54.89" x2="15.965" y2="78.396"><stop offset=".153" style="stop-color:#0555ff"/><stop offset=".651" style="stop-color:#0eaddc"/><stop offset="1" style="stop-color:#00e05c"/></linearGradient><path style="fill:url(#aO)" d="M15.3 75.3h1.2v1.2h-1.2z"/><linearGradient id="aP" gradientUnits="userSpaceOnUse" x1="19.667" y1="54.89" x2="19.667" y2="78.396"><stop offset=".153" style="stop-color:#0555ff"/><stop offset=".651" style="stop-color:#0eaddc"/><stop offset="1" style="stop-color:#00e05c"/></linearGradient><path style="fill:url(#aP)" d="M19 75.3h1.3v1.3H19z"/><linearGradient id="aQ" gradientUnits="userSpaceOnUse" x1="23.368" y1="54.89" x2="23.368" y2="78.396"><stop offset=".153" style="stop-color:#0555ff"/><stop offset=".651" style="stop-color:#0eaddc"/><stop offset="1" style="stop-color:#00e05c"/></linearGradient><path style="fill:url(#aQ)" d="M22.7 75.3H24v1.3h-1.3z"/><linearGradient id="aR" gradientUnits="userSpaceOnUse" x1="27.07" y1="54.89" x2="27.07" y2="78.396"><stop offset=".153" style="stop-color:#0555ff"/><stop offset=".651" style="stop-color:#0eaddc"/><stop offset="1" style="stop-color:#00e05c"/></linearGradient><path style="fill:url(#aR)" d="M26.4 75.3h1.3v1.3h-1.3z"/><linearGradient id="aS" gradientUnits="userSpaceOnUse" x1="30.772" y1="54.89" x2="30.772" y2="78.396"><stop offset=".153" style="stop-color:#0555ff"/><stop offset=".651" style="stop-color:#0eaddc"/><stop offset="1" style="stop-color:#00e05c"/></linearGradient><path style="fill:url(#aS)" d="M30.2 75.4h1.1v1.1h-1.1z"/><linearGradient id="aT" gradientUnits="userSpaceOnUse" x1="52.984" y1="54.89" x2="52.984" y2="78.396"><stop offset=".153" style="stop-color:#0555ff"/><stop offset=".651" style="stop-color:#0eaddc"/><stop offset="1" style="stop-color:#00e05c"/></linearGradient><path style="fill:url(#aT)" d="M52.5 75.4h1.1v1.1h-1.1z"/><linearGradient id="aU" gradientUnits="userSpaceOnUse" x1="56.686" y1="54.89" x2="56.686" y2="78.396"><stop offset=".153" style="stop-color:#0555ff"/><stop offset=".651" style="stop-color:#0eaddc"/><stop offset="1" style="stop-color:#00e05c"/></linearGradient><path style="fill:url(#aU)" d="M56 75.3h1.3v1.3H56z"/><linearGradient id="aV" gradientUnits="userSpaceOnUse" x1="60.388" y1="54.89" x2="60.388" y2="78.396"><stop offset=".153" style="stop-color:#0555ff"/><stop offset=".651" style="stop-color:#0eaddc"/><stop offset="1" style="stop-color:#00e05c"/></linearGradient><path style="fill:url(#aV)" d="M59.7 75.3H61v1.3h-1.3z"/><linearGradient id="aW" gradientUnits="userSpaceOnUse" x1="64.09" y1="54.89" x2="64.09" y2="78.396"><stop offset=".153" style="stop-color:#0555ff"/><stop offset=".651" style="stop-color:#0eaddc"/><stop offset="1" style="stop-color:#00e05c"/></linearGradient><path style="fill:url(#aW)" d="M63.5 75.3h1.3v1.3h-1.3z"/><linearGradient id="aX" gradientUnits="userSpaceOnUse" x1="67.792" y1="54.89" x2="67.792" y2="78.396"><stop offset=".153" style="stop-color:#0555ff"/><stop offset=".651" style="stop-color:#0eaddc"/><stop offset="1" style="stop-color:#00e05c"/></linearGradient><path style="fill:url(#aX)" d="M67.2 75.3h1.2v1.2h-1.2z"/><linearGradient id="aY" gradientUnits="userSpaceOnUse" x1="19.667" y1="54.908" x2="19.667" y2="79.651"><stop offset=".153" style="stop-color:#0555ff"/><stop offset=".651" style="stop-color:#0eaddc"/><stop offset="1" style="stop-color:#00e05c"/></linearGradient><path style="fill:url(#aY)" d="M19.3 79.2h.7v.7h-.7z"/><linearGradient id="aZ" gradientUnits="userSpaceOnUse" x1="23.369" y1="54.908" x2="23.369" y2="79.651"><stop offset=".153" style="stop-color:#0555ff"/><stop offset=".651" style="stop-color:#0eaddc"/><stop offset="1" style="stop-color:#00e05c"/></linearGradient><path style="fill:url(#aZ)" d="M23 79.2h.8v.8H23z"/><linearGradient id="ba" gradientUnits="userSpaceOnUse" x1="27.07" y1="54.908" x2="27.07" y2="79.651"><stop offset=".153" style="stop-color:#0555ff"/><stop offset=".651" style="stop-color:#0eaddc"/><stop offset="1" style="stop-color:#00e05c"/></linearGradient><path style="fill:url(#ba)" d="M26.8 79.3h.5v.5h-.5z"/><linearGradient id="bb" gradientUnits="userSpaceOnUse" x1="56.686" y1="54.908" x2="56.686" y2="79.651"><stop offset=".153" style="stop-color:#0555ff"/><stop offset=".651" style="stop-color:#0eaddc"/><stop offset="1" style="stop-color:#00e05c"/></linearGradient><path style="fill:url(#bb)" d="M56.4 79.3h.5v.5h-.5z"/><linearGradient id="bc" gradientUnits="userSpaceOnUse" x1="60.388" y1="54.908" x2="60.388" y2="79.651"><stop offset=".153" style="stop-color:#0555ff"/><stop offset=".651" style="stop-color:#0eaddc"/><stop offset="1" style="stop-color:#00e05c"/></linearGradient><path style="fill:url(#bc)" d="M60 79.2h.8v.8H60z"/><linearGradient id="bd" gradientUnits="userSpaceOnUse" x1="64.09" y1="54.908" x2="64.09" y2="79.651"><stop offset=".153" style="stop-color:#0555ff"/><stop offset=".651" style="stop-color:#0eaddc"/><stop offset="1" style="stop-color:#00e05c"/></linearGradient><path style="fill:url(#bd)" d="M63.7 79.2h.7v.7h-.7z"/><linearGradient id="be" gradientUnits="userSpaceOnUse" x1="18.49" y1="43.914" x2="18.49" y2="79.445"><stop offset=".153" style="stop-color:#0555ff"/><stop offset=".651" style="stop-color:#0eaddc"/><stop offset="1" style="stop-color:#00e05c"/></linearGradient><path d="M17.5 51.4h2c-.4-.3-.8-.5-1.2-.8-.3.3-.5.6-.8.8z" style="fill:url(#be)"/><linearGradient id="bf" gradientUnits="userSpaceOnUse" x1="65.281" y1="43.914" x2="65.281" y2="79.445"><stop offset=".153" style="stop-color:#0555ff"/><stop offset=".651" style="stop-color:#0eaddc"/><stop offset="1" style="stop-color:#00e05c"/></linearGradient><path d="M65.9 51.4h.3c-.3-.3-.6-.5-.8-.8-.4.3-.8.5-1.2.8h1.7z" style="fill:url(#bf)"/></g></svg>