<?xml version="1.0" encoding="UTF-8"?>
<svg width="288px" height="288px" viewBox="0 0 288 288" version="1.1" xmlns="http://www.w3.org/2000/svg" xmlns:xlink="http://www.w3.org/1999/xlink">
    <title>WX Icons/Brand/Color/32  Windy @DefaultSymbols.ICONS_Forecast_Color</title>
    <g id="WX-Icons/Brand/Color/32--Windy-@DefaultSymbols.ICONS_Forecast_Color" stroke="none" stroke-width="1" fill="none" fill-rule="evenodd">
        <g id="Windy" transform="translate(0.000000, 54.000000)" fill="#BABABA" fill-rule="nonzero">
            <path d="M215.847458,72.3821798 C215.847458,55.1630646 229.806309,41.2042137 247.025424,41.2042137 C264.244539,41.2042137 278.20339,55.1630646 278.20339,72.3821798 C278.20339,89.6012951 264.244539,103.560146 247.025424,103.560146 L71.9491525,103.560146 L71.9491525,113.153366 L247.025424,113.153366 C269.542728,113.153366 287.79661,94.8994844 287.79661,72.3821798 C287.79661,49.8648753 269.542728,31.6109934 247.025424,31.6109934 C224.508119,31.6109934 206.254237,49.8648753 206.254237,72.3821798 L215.847458,72.3821798 Z" id="Path"></path>
            <path d="M105.525424,36.4076078 C105.525435,23.7935171 113.126208,12.4222782 124.78172,7.59896736 C136.437232,2.7756565 149.850687,5.45073903 158.764243,14.3761964 C167.6778,23.3016539 170.334984,36.7186656 165.496126,48.3677318 C160.65727,60.0167941 149.2759,67.602397 136.661809,67.5856061 L0,67.5856019 L0,77.1788586 L136.655424,77.1788586 C153.144375,77.2007753 168.027696,67.2811468 174.35543,52.0477614 C180.683167,36.8143672 177.208388,19.2690441 165.552198,7.5972921 C153.896009,-4.0744599 136.355337,-7.57264475 121.113514,-1.26523823 C105.871691,5.04216828 95.9322181,19.9122499 95.9322034,36.4075993 L105.525424,36.4076078 Z" id="Path"></path>
            <path d="M220.644132,180.312297 C220.658492,169.502407 216.374388,159.130332 208.735748,151.481494 C201.097104,143.832651 190.730749,139.534722 179.920847,139.534722 L0,139.534722 L0,149.127943 L179.920847,149.127943 C188.184253,149.127943 196.108595,152.413403 201.947793,158.260398 C207.786993,164.107393 211.061889,172.036115 211.050884,180.299521 L220.644132,180.312297 Z" id="Path"></path>
        </g>
    </g>
</svg>