<?xml version="1.0" encoding="UTF-8"?>
<svg width="288px" height="288px" viewBox="0 0 288 288" version="1.1" xmlns="http://www.w3.org/2000/svg" xmlns:xlink="http://www.w3.org/1999/xlink">
    <title>WX Icons/Brand/Color/07  Cloudy @DefaultSymbols.ICONS_Forecast_Color</title>
    <g id="WX-Icons/Brand/Color/07--Cloudy-@DefaultSymbols.ICONS_Forecast_Color" stroke="none" stroke-width="1" fill="none" fill-rule="evenodd">
        <g id="Cloudy" transform="translate(24.000000, 74.000000)" fill="#BABABA" fill-rule="nonzero">
            <path d="M175.015516,20.65 C155.243395,-1.21320194 124.402766,-9.51660698 96.2288328,-0.365512301 C68.7902492,8.5467357 49.0333149,32.3407206 45.1099483,60.65 L37.5500008,60.65 C14.0778985,60.6500005 -4.94999921,79.6778983 -4.94999921,103.15 C-4.94999921,126.622102 14.0778987,145.65 37.5500008,145.65 L182.550001,145.65 C217.050914,145.620001 245,117.646587 245,83.15 C245,66.5739694 238.415197,50.6768498 226.694174,38.9558262 C214.97315,27.2348025 199.076031,20.65 182.5,20.65 L175.015516,20.65 Z M235,83.15 C235,112.127136 211.522768,135.624804 182.545653,135.650002 L37.5500008,135.650002 C19.6007462,135.650002 5.05000079,121.099254 5.05000079,103.15 C5.05000079,85.2007458 19.6007461,70.6500004 37.5500008,70.65 L54.2336613,70.65 L54.5855604,66.0297204 C56.5868503,39.7536718 74.2548201,17.2860785 99.3180345,9.14536741 C124.381249,1.0046563 151.87947,8.8019481 168.939132,28.8868633 L170.436699,30.65 L182.5,30.65 C196.423866,30.65 209.777446,36.1812341 219.623106,46.026894 C229.468766,55.8725539 235,69.2261343 235,83.15 Z" id="Path"></path>
        </g>
    </g>
</svg>
